<?xml version="1.0" encoding="utf-8"?>
<!-- Generator: Adobe Illustrator 27.9.0, SVG Export Plug-In . SVG Version: 6.00 Build 0)  -->
<svg version="1.1" id="Lager_1" xmlns="http://www.w3.org/2000/svg" xmlns:xlink="http://www.w3.org/1999/xlink" x="0px" y="0px"
	 viewBox="0 0 960 960" style="enable-background:new 0 0 960 960;" xml:space="preserve">
<g>
	<path d="M25.8,216.7L140.6,57.2v-0.9H35.6V35.1h139.6v15.5L61.1,209.5v0.9h115.7v21.3h-151V216.7z"/>
	<path d="M209.6,37.7c11.7-2.3,30.1-4.1,48.8-4.1c26.7,0,43.9,4.4,56.8,14.3c10.7,7.6,17.2,19.2,17.2,34.7c0,19-13.2,35.6-35,43.2
		v0.6C317,131,340,146.5,340,175.6c0,16.9-7.1,29.7-17.5,39.4c-14.4,12.5-37.7,18.4-71.5,18.4c-18.4,0-32.5-1.2-41.4-2.3V37.7z
		 M236.3,118.2h24.2c28.2,0,44.8-14,44.8-33c0-23-18.4-32.1-45.4-32.1c-12.3,0-19.3,0.9-23.6,1.7V118.2z M236.3,212.4
		c5.2,0.9,12.9,1.2,22.4,1.2c27.6,0,53.1-9.6,53.1-38.2c0-26.8-24.2-37.9-53.4-37.9h-22.1V212.4z"/>
	<path d="M550.2,145.3c-1.5-27.4-3.4-60.4-3.1-84.9h-0.9c-7.1,23-15.6,47.5-26.1,74.6l-36.5,95.4h-20.3l-33.4-93.6
		c-9.8-27.7-18.1-53.1-23.9-76.4h-0.6c-0.6,24.5-2.1,57.4-4,86.9l-5.5,84.3h-25.5l14.4-196.5h34.1l35.3,95.1
		c8.6,24.2,15.6,45.8,20.9,66.2h0.9c5.2-19.8,12.6-41.4,21.8-66.2l36.8-95.1h34.1l12.9,196.5h-26.1L550.2,145.3z"/>
	<path d="M649.3,35.1v196.5h-26.7V35.1H649.3z"/>
	<path d="M695.9,231.6V35.1h29.1l66.3,99.4c15.3,23,27.3,43.7,37.1,63.9l0.6-0.3c-2.5-26.2-3.1-50.2-3.1-80.8V35.1h25.2v196.5h-27
		l-65.7-99.7c-14.4-21.9-28.2-44.3-38.7-65.6l-0.9,0.3c1.5,24.8,2.1,48.4,2.1,81.1v84H695.9z"/>
	<path d="M924.5,35.1v196.5h-26.7V35.1H924.5z"/>
	<g>
		<path d="M78.3,303.7h81.7v536.1h270.3V905h-352V303.7z"/>
		<path d="M492.2,905v-48.2L557,797c155.8-140.9,226.2-215.9,227.1-303.3c0-58.9-30-113.3-121.1-113.3
			c-55.4,0-101.4,26.8-129.5,49.1l-26.3-55.3c42.2-33.9,102.3-58.9,172.7-58.9c131.4,0,186.8,85.6,186.8,168.6
			c0,107-81.7,193.6-210.3,311.3l-48.8,42.8v1.8h274.1V905H492.2z"/>
	</g>
</g>
</svg>
