<svg width="55.5625" height="55.5625" xmlns="http://www.w3.org/2000/svg" version="1.1" viewBox="0 0 55.5625 55.5625">
    <style type="text/css">
        #pair {
            animation: pairhold 10s infinite;
        }

        #blink {
            animation: pairholdx 10s infinite;
        }

        @keyframes pairhold {
            0%, 9%, 61%, 100% {
                fill: none;
            }
            10%, 60% {
                fill: #0099CC;
            }
        }

        @keyframes pairholdx {
            0%, 64%, 71%, 74%, 81%, 84%, 91%, 94%  {
                fill: none;
            }
            65%, 70%, 75%, 80%, 85%, 90%, 95%, 100% {
                fill: #15D11E;
            }
        }
    </style>
    <g>
        <path stroke-miterlimit="22.9256" stroke-width="0.49999" stroke="#3e3a39" fill="none"
            d="m8.07907,6.80009l39.40439,0c3.51021,0 6.38179,2.8719 6.38179,6.3821l0,29.50002c0,3.51018 -2.87158,6.3821 -6.38179,6.3821l-39.40439,0c-3.51021,0 -6.38182,-2.87192 -6.38182,-6.3821l0,-29.50002c0,-3.5102 2.87161,-6.3821 6.38182,-6.3821z" />
        <path stroke-miterlimit="22.9256" stroke-linejoin="bevel" stroke-width="0.19999"
            stroke="#231916" fill="none"
            d="m22.43045,43.25209c0,-1.51261 -1.22618,-2.73879 -2.73878,-2.73879c-1.51261,0 -2.73883,1.22618 -2.73883,2.73879c0,1.5126 1.22611,2.73882 2.73883,2.73882c1.5126,0 2.73878,-1.22622 2.73878,-2.73882z" />
        <path stroke-miterlimit="22.9256" stroke-linejoin="bevel" stroke-width="0.19999"
            stroke="#231916" fill="none"
            d="m29.03385,43.25209c0,-1.51261 -1.22618,-2.73879 -2.73879,-2.73879c-1.5126,0 -2.73882,1.22618 -2.73882,2.73879c0,1.5126 1.22611,2.73882 2.73882,2.73882c1.51261,0 2.73879,-1.22622 2.73879,-2.73882z" />
        <path stroke-miterlimit="22.9256" stroke-linejoin="bevel" stroke-width="0.19999"
            stroke="#231916" fill="none"
            d="m35.63736,43.25209c0,-1.51261 -1.22629,-2.73879 -2.7389,-2.73879c-1.51249,0 -2.73882,1.22618 -2.73882,2.73879c0,1.5126 1.22611,2.73882 2.73882,2.73882c1.51261,0 2.7389,-1.22622 2.7389,-2.73882z" />
        <path stroke-miterlimit="22.9256" stroke-linejoin="bevel" stroke-width="0.19999"
            stroke="#231916" fill="none"
            d="m42.24076,43.25209c0,-1.51261 -1.22629,-2.73879 -2.73879,-2.73879c-1.51261,0 -2.73893,1.22618 -2.73893,2.73879c0,1.5126 1.22611,2.73882 2.73893,2.73882c1.5125,0 2.73879,-1.22622 2.73879,-2.73882z" />
        <path id="blink" stroke-miterlimit="22.9256" stroke-linejoin="bevel" stroke-width="0.0762"
            stroke="#3e3a39" fill="none"
            d="m47.07844,27.51489c0,-0.29179 -0.23657,-0.52829 -0.52829,-0.52829c-0.29171,0 -0.52828,0.2365 -0.52828,0.52829c0,0.29171 0.23657,0.52821 0.52828,0.52821c0.29172,0 0.52829,-0.2365 0.52829,-0.52821z" />
        <path stroke-miterlimit="22.9256" stroke-width="0.19999" stroke="#3e3a39" fill="none"
            d="m1.96874,38.55701l51.89651,0" />
        <path id="pair" stroke-miterlimit="22.9256" stroke-linejoin="bevel" stroke-width="0.19999"
            stroke="#231916" fill="none"
            d="m49.73274,15.54418c0,-1.75768 -1.42487,-3.18258 -3.18259,-3.18258c-1.75771,0 -3.18258,1.4249 -3.18258,3.18258c0,1.75772 1.42487,3.18262 3.18258,3.18262c1.75772,0 3.18252,-1.4249 3.18259,-3.18262z" />
        <path stroke-width="0.35278" fill-rule="evenodd" fill="#3e3a39"
            d="m9.73525,16.9088l-2.2715,0l0,-0.5679l1.7036,0l0,-1.13581l-1.7036,0.00011l0,-2.27161l2.2715,0l0,0.5679l-1.7036,0l0,1.13581l1.7036,0l0,2.2715z" />
        <path stroke-width="0.35278" fill-rule="evenodd" fill="#3e3a39"
            d="m10.23214,16.9088l2.2715,0l0,-2.2715l-2.2715,0l0,2.2715zm1.7036,-0.5679l-1.1357,0l0,-1.13581l1.1357,0l0,1.13581z" />
        <path stroke-width="0.35278" fill-rule="evenodd" fill="#3e3a39"
            d="m15.27207,14.6373l0,2.2715l-0.56791,0l0,-1.7036l-1.1358,0l0,1.7036l-0.5678,0l0,-2.2715l2.27151,0z" />
        <path stroke-width="0.35278" fill-rule="evenodd" fill="#3e3a39"
            d="m20.80884,14.6373l0,0.5679l-1.70367,0l0,0.56779l1.70367,0l0,0.56791l-1.70367,0l0,0.5679l-0.56783,0l0,-2.2715l2.2715,0z" />
        <path stroke-width="0.35278" fill-rule="evenodd" fill="#3e3a39"
            d="m15.76895,16.9088l2.2715,0l0,-2.2715l-2.2715,0l0,2.2715zm1.7036,-0.5679l-1.1358,0l0,-1.13581l1.1358,0l0,1.13581z" />
        <path stroke-width="0.35278" fill-rule="evenodd" fill="#3e3a39"
            d="m23.57726,14.6373l0,0.5679l-1.7037,0l0,0.56779l1.7037,0l0,0.56791l-1.7037,0l0,0.5679l-0.5678,0l0,-2.2715l2.2715,0z" />
        <path stroke-width="0.35278" fill-rule="evenodd" fill="#3e3a39"
            d="m10.44515,13.21761c0,0.17389 -0.0624,0.3326 -0.16609,0.45629l-0.16319,-0.13692c0.0727,-0.0867 0.11627,-0.19759 0.11627,-0.31937c0,-0.1217 -0.0436,-0.23272 -0.11627,-0.3194l0.16319,-0.13681c0.10368,0.12361 0.16609,0.2824 0.16609,0.45621" />
        <path stroke-width="0.35278" fill-rule="evenodd" fill="#3e3a39"
            d="m10.97745,13.21761c0,0.30579 -0.10911,0.58061 -0.29058,0.79848l-0.16323,-0.13688c0.15042,-0.17953 0.24091,-0.40922 0.24091,-0.6616c0,-0.25241 -0.0905,-0.482 -0.24091,-0.6616l0.16323,-0.13691c0.18147,0.21791 0.29058,0.49269 0.29058,0.79851" />
        <path stroke-width="0.35278" fill-rule="evenodd" fill="#3e3a39"
            d="m11.50987,13.21761c0,0.4353 -0.15593,0.83118 -0.41522,1.14068l-0.16309,-0.13688c0.22839,-0.27563 0.36541,-0.61772 0.36541,-1.0038c0,-0.38611 -0.13702,-0.7282 -0.36541,-1.00383l0.16309,-0.13687c0.25929,0.30959 0.41522,0.70537 0.41522,1.1407" />
        <path stroke-width="0.35278" fill-rule="evenodd" fill="#3e3a39"
            d="m24.49674,33.454l0,-1.6632l0.27221,0l0,1.4303l0.7039,0l0,0.2329l-0.97611,0zm2.10711,0l-0.26719,0l0,-1.25789l0.26719,0l0,1.25789zm-0.2831,-1.59099c0,-0.0478 0.0128,-0.0847 0.0393,-0.11031c0.026,-0.026 0.0632,-0.0388 0.11172,-0.0388c0.047,0 0.0838,0.0128 0.10989,0.0388c0.026,0.0256 0.0392,0.0625 0.0392,0.11031c0,0.0454 -0.0132,0.0811 -0.0392,0.10749c-0.0261,0.026 -0.0629,0.0392 -0.10989,0.0392c-0.0485,0 -0.0857,-0.0132 -0.11172,-0.0392c-0.0265,-0.0264 -0.0393,-0.0621 -0.0393,-0.10749zm1.77239,1.59099l-0.26839,0l0,-0.77339c0,-0.097 -0.0198,-0.1693 -0.0586,-0.2171c-0.0391,-0.0477 -0.10128,-0.0717 -0.18641,-0.0717c-0.11289,0 -0.19547,0.0333 -0.24797,0.10012c-0.0524,0.0668 -0.0784,0.17857 -0.0784,0.33549l0,0.6266l-0.26758,0l0,-1.25789l0.2093,0l0.0377,0.16449l0.0136,0c0.038,-0.0601 0.092,-0.10629 0.16151,-0.13892c0.0699,-0.0326 0.14749,-0.0489 0.23219,-0.0489c0.30198,0 0.45308,0.15381 0.45308,0.4608l-0.00003,0.8204z" />
        <path stroke-width="0.35278" fill-rule="nonzero" fill="#3e3a39"
            d="m26.12887,36.6659l0.00027,-0.001l0.6115,-1.13697l-0.0251,0l-1.1213,0l-0.001,0l-0.001,0c-0.0282,-0.001 -0.0541,-0.0161 -0.0688,-0.0406c-0.015,-0.0252 -0.0156,-0.0563 -0.002,-0.0822l0.62869,-1.16943l0.00021,0.00011c0.0176,-0.033 0.0524,-0.0555 0.0925,-0.0555c0.0577,0 0.10459,0.0469 0.10459,0.1046c0,0.0141 -0.003,0.0276 -0.008,0.0397l0.00026,0.00022l-0.004,0.008l-0.001,0.002l-0.001,0.002l-0.48319,0.89838l0.0251,0l1.1206,0l0.001,0l0.001,0c0.0282,0.001 0.0541,0.0162 0.0688,0.0407c0.015,0.0252 0.0156,0.0563 0.002,0.0821l-0.75449,1.4041l-0.001,0.002l-0.001,0.002l-0.001,0.002l-0.00079,0.001l-0.00011,0c-0.0182,0.0307 -0.0517,0.051 -0.0898,0.051c-0.0578,0 -0.1047,-0.0469 -0.1047,-0.10471c0,-0.0185 0.005,-0.036 0.0134,-0.0511" />
        <path stroke-width="0.35278" fill-rule="evenodd" fill="#3e3a39"
            d="m16.82147,33.37798l0,-1.66328l0.2722,0l0,1.43031l0.7039,0l0,0.23297l-0.9761,0zm3.26788,-0.83368c0,0.271 -0.0678,0.48161 -0.20288,0.63172c-0.1355,0.15028 -0.32741,0.22517 -0.5751,0.22517c-0.25083,0 -0.44372,-0.0745 -0.57863,-0.22359c-0.1343,-0.14912 -0.20179,-0.36071 -0.20179,-0.63521c0,-0.27488 0.0679,-0.4857 0.20299,-0.63278c0.13551,-0.14721 0.32851,-0.22052 0.57972,-0.22052c0.24691,0 0.43829,0.0744 0.5732,0.22391c0.13511,0.14962 0.20249,0.35991 0.20249,0.6313zm-1.26908,-0.00027c0,0.20479 0.041,0.3599 0.12379,0.4656c0.0827,0.10601 0.205,0.15868 0.36731,0.15868c0.1615,0 0.28339,-0.0523 0.36569,-0.15667c0.0819,-0.10492 0.12308,-0.26063 0.12308,-0.46761c0,-0.20369 -0.0408,-0.35831 -0.12227,-0.4639c-0.0811,-0.10531 -0.20271,-0.15801 -0.36421,-0.15801c-0.16301,0 -0.2861,0.0527 -0.36922,0.15801c-0.0828,0.10559 -0.12417,0.26021 -0.12417,0.4639zm2.48599,0.83407l-0.0376,-0.16457l-0.0136,0c-0.0373,0.0585 -0.0901,0.10428 -0.15893,0.1378c-0.0687,0.0334 -0.14707,0.05 -0.23477,0.05c-0.15272,0 -0.26642,-0.038 -0.3417,-0.11371c-0.075,-0.0757 -0.11261,-0.1906 -0.11261,-0.3448l0,-0.82268l0.26938,0l0,0.7758c0,0.0963 0.0198,0.16848 0.0594,0.2166c0.0393,0.0482 0.10132,0.0722 0.1856,0.0722c0.11221,0 0.1949,-0.0334 0.24729,-0.10051c0.0529,-0.0672 0.0793,-0.17988 0.0793,-0.33739l0,-0.62668l0.2686,0l0,1.25797l-0.21036,-0.00003zm1.0596,-0.19339c0.0653,0 0.13049,-0.01 0.19558,-0.0306l0,0.20179c-0.0294,0.0128 -0.0679,0.0238 -0.11448,0.0322c-0.0466,0.009 -0.0947,0.0132 -0.1447,0.0132c-0.25319,0 -0.37991,-0.13349 -0.37991,-0.40068l0,-0.67783l-0.17191,0l0,-0.11839l0.1845,-0.0979l0.0907,-0.266l0.1651,0l0,0.27961l0.35832,0l0,0.20267l-0.35832,0l0,0.67321c0,0.0644 0.0159,0.1119 0.0481,0.14252c0.0322,0.0306 0.0746,0.0462 0.127,0.0462" />
        <path stroke-width="0.35278" fill-rule="nonzero" fill="#3e3a39"
            d="m19.52526,36.641l0.00079,-0.001l0.6114,-1.13697l-0.0251,0l-1.12127,0l-0.001,0l-0.001,0c-0.0283,-0.001 -0.0541,-0.0162 -0.0689,-0.0407c-0.0149,-0.0252 -0.0156,-0.0563 -0.002,-0.0821l0.62879,-1.16942l0.00021,0.0001c0.0176,-0.0331 0.0523,-0.0556 0.0924,-0.0556c0.0578,0 0.1047,0.0469 0.1047,0.10471c0,0.014 -0.003,0.0275 -0.008,0.0397l0.00079,0.00021l-0.004,0.008l-0.001,0.002l-0.001,0.002l-0.48331,0.89849l0.0251,0l1.1206,0l0.001,0l0.001,0c0.0283,0.001 0.0541,0.0161 0.0689,0.0406c0.015,0.0253 0.0156,0.0563 0.002,0.0822l-0.75459,1.40399l-0.001,0.002l-0.001,0.002l-0.001,0.002l-0.001,0.002l-0.0001,0c-0.0182,0.0307 -0.0517,0.051 -0.0898,0.051c-0.0578,0 -0.10471,-0.0469 -0.10471,-0.10471c0,-0.0185 0.005,-0.036 0.0134,-0.0512" />
        <path stroke-width="0.35278" fill-rule="evenodd" fill="#3e3a39"
            d="m32.93607,32.97811c0,0.14788 -0.0531,0.26398 -0.1603,0.34819c-0.10672,0.0843 -0.25421,0.12619 -0.44263,0.12619c-0.18828,0 -0.34199,-0.0291 -0.46207,-0.0877l0,-0.25778c0.0762,0.0356 0.15649,0.0636 0.24197,0.0842c0.0854,0.0206 0.1645,0.0307 0.23841,0.0307c0.10791,0 0.18711,-0.0206 0.2383,-0.0613c0.0513,-0.0408 0.0769,-0.0956 0.0769,-0.16429c0,-0.0621 -0.0236,-0.1149 -0.0706,-0.15801c-0.0471,-0.0436 -0.14411,-0.0944 -0.29132,-0.15381c-0.15169,-0.0613 -0.25859,-0.13159 -0.32099,-0.21039c-0.0621,-0.0789 -0.0933,-0.17361 -0.0933,-0.2842c0,-0.139 0.0494,-0.24822 0.14802,-0.3277c0.0986,-0.0796 0.23111,-0.1197 0.39719,-0.1197c0.15922,0 0.31761,0.035 0.47562,0.1045l-0.0865,0.22179c-0.14792,-0.0622 -0.28,-0.0933 -0.3961,-0.0933c-0.0881,0 -0.1549,0.019 -0.20031,0.0575c-0.0455,0.0384 -0.0683,0.089 -0.0683,0.15218c0,0.0431 0.009,0.0799 0.0275,0.1111c0.0183,0.0307 0.0482,0.0593 0.0896,0.0869c0.042,0.0272 0.11691,0.0633 0.2256,0.10792c0.12199,0.0509 0.21171,0.0983 0.2684,0.1421c0.057,0.0443 0.0986,0.0941 0.1253,0.14912c0.0264,0.0556 0.0396,0.12089 0.0396,0.19579l0.00001,0zm0.98979,0.45109l-0.26751,0l0,-1.07399c0,-0.1281 0.003,-0.2298 0.009,-0.3047c-0.0175,0.0179 -0.0389,0.0381 -0.0645,0.0601c-0.0252,0.0222 -0.11007,0.0917 -0.25538,0.20941l-0.13391,-0.16979l0.4892,-0.38432l0.22281,0l0.00029,1.66329z" />
        <path stroke-width="0.35278" fill-rule="nonzero" fill="#3e3a39"
            d="m32.43146,34.1137l0.93391,0c0.0896,0 0.17109,0.0367 0.2299,0.0955l0,0.00026c0.0588,0.0591 0.0955,0.1403 0.0955,0.22962l0,2.0737c0,0.0892 -0.0367,0.1705 -0.0955,0.22959l0,0.00026c-0.0588,0.0591 -0.1403,0.0958 -0.2299,0.0958l-0.93391,0c-0.0893,0 -0.1705,-0.0367 -0.22952,-0.0955l-0.00079,-0.00026c-0.0587,-0.0591 -0.0955,-0.14041 -0.0955,-0.22959l0,-2.0737c0,-0.0893 0.0368,-0.17049 0.0955,-0.22962l0.00079,-0.00026c0.059,-0.0588 0.14023,-0.0955 0.22952,-0.0955l0,-0.0003zm0.93391,0.26419l-0.93391,0c-0.0168,0 -0.0322,0.007 -0.0433,0.0175l-0.00079,0.0008c-0.0107,0.0111 -0.0175,0.0265 -0.0175,0.0433l0,2.0737c0,0.0169 0.007,0.0323 0.0175,0.0434l0.00079,0.00026c0.0111,0.0107 0.0265,0.0176 0.0433,0.0176l0.93391,0c0.0166,0 0.032,-0.007 0.0431,-0.0181l0.00026,0.00021c0.0108,-0.0111 0.0178,-0.0265 0.0178,-0.0436l0,-2.0737c0,-0.0169 -0.007,-0.0325 -0.0178,-0.0436l-0.00026,0.00026c-0.0111,-0.0111 -0.0265,-0.0181 -0.0431,-0.0181" />
        <path stroke-width="0.35278" fill-rule="nonzero" fill="#3e3a39"
            d="m32.51616,34.77999l0.76429,0l0,0.2582l-0.76429,0l0,-0.2582z" />
        <path stroke-width="0.35278" fill-rule="evenodd" fill="#3e3a39"
            d="m39.36834,32.97811c0,0.14788 -0.0531,0.26398 -0.16027,0.34819c-0.10671,0.0843 -0.25421,0.12619 -0.44263,0.12619c-0.18828,0 -0.34198,-0.0291 -0.4621,-0.0877l0,-0.25778c0.0762,0.0356 0.15653,0.0636 0.242,0.0842c0.0854,0.0206 0.1645,0.0307 0.23841,0.0307c0.10792,0 0.18711,-0.0206 0.23841,-0.0613c0.0512,-0.0408 0.0768,-0.0956 0.0768,-0.16429c0,-0.0621 -0.0236,-0.1149 -0.0706,-0.15801c-0.0471,-0.0436 -0.14411,-0.0944 -0.29133,-0.15381c-0.15169,-0.0613 -0.25848,-0.13159 -0.32099,-0.21039c-0.0621,-0.0789 -0.0933,-0.17361 -0.0933,-0.2842c0,-0.139 0.0494,-0.24822 0.14803,-0.3277c0.0986,-0.0796 0.2311,-0.1197 0.39719,-0.1197c0.15921,0 0.31771,0.035 0.47558,0.1045l-0.0865,0.22179c-0.14792,-0.0622 -0.28003,-0.0933 -0.39613,-0.0933c-0.0881,0 -0.15487,0.019 -0.20027,0.0575c-0.0455,0.0384 -0.0683,0.089 -0.0683,0.15218c0,0.0431 0.009,0.0799 0.0275,0.1111c0.0183,0.0307 0.0482,0.0593 0.0896,0.0869c0.042,0.0272 0.11692,0.0633 0.22561,0.10792c0.12209,0.0509 0.2117,0.0983 0.26839,0.1421c0.057,0.0443 0.0986,0.0941 0.12531,0.14912c0.0264,0.0556 0.0396,0.12089 0.0396,0.19579l-0.00001,0zm1.33223,0.45109l-1.12752,0l0,-0.20232l0.42909,-0.43137c0.12661,-0.12972 0.21043,-0.2213 0.25202,-0.27563c0.0411,-0.0544 0.0715,-0.10526 0.0905,-0.15289c0.019,-0.0478 0.0283,-0.0991 0.0283,-0.15388c0,-0.0749 -0.0225,-0.1343 -0.0675,-0.17741c-0.0451,-0.043 -0.10771,-0.0648 -0.18722,-0.0648c-0.0636,0 -0.12538,0.0116 -0.18528,0.0354c-0.0593,0.0232 -0.1281,0.0659 -0.20652,0.12728l-0.14439,-0.17628c0.0927,-0.0781 0.18239,-0.1331 0.2698,-0.16581c0.0873,-0.0326 0.1802,-0.049 0.27881,-0.049c0.15458,0 0.2788,0.0405 0.372,0.12129c0.0936,0.0807 0.14009,0.18941 0.14009,0.32572c0,0.0752 -0.0136,0.1463 -0.0403,0.21389c-0.0272,0.0675 -0.0684,0.13709 -0.12432,0.20898c-0.0558,0.0714 -0.14827,0.16831 -0.27837,0.29041l-0.28882,0.27982l0,0.0113l0.78962,0l0.00001,0.2353z" />
        <path stroke-width="0.35278" fill-rule="nonzero" fill="#3e3a39"
            d="m39.03514,34.1137l0.93391,0c0.0897,0 0.1712,0.0367 0.2299,0.0955l0,0.00026c0.0588,0.0591 0.0955,0.1403 0.0955,0.22962l0,2.0737c0,0.0892 -0.0367,0.1705 -0.0955,0.22959l0,0.00026c-0.0587,0.0588 -0.14019,0.0955 -0.2299,0.0955l-0.93391,0c-0.0893,0 -0.1705,-0.0367 -0.22948,-0.0955l-0.00027,-0.00026c-0.0588,-0.0591 -0.0955,-0.1404 -0.0955,-0.22959l0,-2.0737c0,-0.0893 0.0367,-0.17049 0.0955,-0.22962l0.00027,-0.00026c0.059,-0.0588 0.14019,-0.0955 0.22948,-0.0955zm0.93391,0.26419l-0.93391,0c-0.0167,0 -0.0322,0.007 -0.0433,0.0175l-0.00027,0.0008c-0.0107,0.0111 -0.0176,0.0265 -0.0176,0.0433l0,2.0737c0,0.0169 0.007,0.0323 0.0176,0.0434l0.00027,0.00026c0.0111,0.0107 0.0266,0.0176 0.0433,0.0176l0.93391,0c0.0166,0 0.0321,-0.007 0.0432,-0.0181l0.00018,0.00021c0.0109,-0.0111 0.0179,-0.0265 0.0179,-0.0436l0,-2.0737c0,-0.0169 -0.007,-0.0325 -0.0179,-0.0436l-0.00018,0.00026c-0.0111,-0.0111 -0.0266,-0.0181 -0.0432,-0.0181" />
        <path stroke-width="0.35278" fill-rule="nonzero" fill="#3e3a39"
            d="m39.11984,34.77999l0.7644,0l0,0.2582l-0.7644,0l0,-0.2582z" />
        <path stroke-width="0.35278" fill-rule="evenodd" fill="#3e3a39"
            d="m47.43845,24.44621c0.0267,0.0233 0.0421,0.0569 0.0421,0.0923c0,0.0676 -0.0547,0.12209 -0.12213,0.12209c-0.0331,0 -0.0641,-0.013 -0.0864,-0.0357c-0.20048,-0.17377 -0.45469,-0.26871 -0.7202,-0.26871c-0.2698,0 -0.52609,0.0987 -0.72908,0.27683l-0.003,0.002c-0.022,0.0183 -0.0495,0.0283 -0.0781,0.0283c-0.0674,0 -0.12199,-0.0547 -0.12199,-0.1221c0,-0.0356 0.0154,-0.0687 0.0425,-0.0926l0.003,-0.002c0.24659,-0.21541 0.55887,-0.3344 0.88678,-0.3344c0.3279,0 0.63979,0.11878 0.8866,0.3339l-0.00008,0.00009zm-1.15881,0.72489c-0.0217,0.0185 -0.0496,0.0287 -0.0786,0.0287c-0.0672,0 -0.12149,-0.0544 -0.12149,-0.12157c0,-0.0395 0.0189,-0.0762 0.0516,-0.0994l0.001,-0.00079c0.12079,-0.0901 0.26599,-0.13871 0.41691,-0.13871c0.15279,0 0.29891,0.0496 0.4203,0.14142l0.002,0.002c0.0307,0.0231 0.0488,0.0588 0.0488,0.0974c0,0.0671 -0.0545,0.12149 -0.1216,0.12149c-0.0278,0 -0.0546,-0.009 -0.0758,-0.0266l-0.00026,-0.00027c-0.0793,-0.0596 -0.17428,-0.0926 -0.27369,-0.0926c-0.0979,0 -0.19191,0.0325 -0.26942,0.0892l0.00025,-0.00027zm0.2703,0.33521c0.10382,0 0.18793,0.0841 0.18793,0.18768c0,0.10372 -0.0841,0.18782 -0.18793,0.18782c-0.10368,0 -0.18789,-0.0841 -0.18789,-0.18782c0,-0.10358 0.0842,-0.18768 0.18789,-0.18768" />
    </g>
</svg>