<?xml version="1.0" encoding="utf-8"?>
<!-- Generator: Adobe Illustrator 27.9.0, SVG Export Plug-In . SVG Version: 6.00 Build 0)  -->
<svg version="1.1"
	 id="Layer_1" xmlns:dc="http://purl.org/dc/elements/1.1/" xmlns:cc="http://creativecommons.org/ns#" xmlns:svg="http://www.w3.org/2000/svg" xmlns:inkscape="http://www.inkscape.org/namespaces/inkscape" xmlns:rdf="http://www.w3.org/1999/02/22-rdf-syntax-ns#" xmlns:sodipodi="http://sodipodi.sourceforge.net/DTD/sodipodi-0.dtd"
	 xmlns="http://www.w3.org/2000/svg" xmlns:xlink="http://www.w3.org/1999/xlink" x="0px" y="0px" viewBox="0 0 667 666"
	 style="enable-background:new 0 0 667 666;" xml:space="preserve">
<style type="text/css">
	.st0{fill:none;stroke:#000000;stroke-width:12.7558;}
	.st1{fill:#FF0000;}
	.st2{fill:none;stroke:#000000;stroke-width:9.3424;}
</style>
<sodipodi:namedview  bordercolor="#666666" borderopacity="1" gridtolerance="10" guidetolerance="10" id="namedview315" inkscape:current-layer="Layer_1" inkscape:cx="392.17183" inkscape:cy="320.27635" inkscape:pageopacity="0" inkscape:pageshadow="2" inkscape:window-height="987" inkscape:window-maximized="1" inkscape:window-width="1680" inkscape:window-x="-8" inkscape:window-y="-8" inkscape:zoom="1.0022655" objecttolerance="10" pagecolor="#ffffff" showgrid="false">
	</sodipodi:namedview>
<g>
	<path class="st0" d="M374.4,8.9H121.8c-10.4,7-20.5,11.2-27.9,18.6L57.6,63.8C50.2,71.2,46,81.2,46,91.7v524.7
		c0,21.8,17.7,39.5,39.5,39.5h252.6c10.4,0,20.5-4.2,27.9-11.6l36.3-36.3c7.4-7.4,11.6-17.4,11.6-27.9V55.4
		C413.9,33.5,396.2,15.8,374.4,8.9z"/>
	<circle class="st1" cx="233.5" cy="490.2" r="12"/>
	<path class="st2" d="M592.1,95.3l-103,1.5c-7.6,5.1-15,8.2-20.4,13.6L442,137c-5.4,5.4-8.5,12.7-8.5,20.4v384.3
		c0,16,13,28.9,28.9,28.9l103-1.5c7.6,0,15-3.1,20.4-8.5l26.6-26.6c5.4-5.4,8.5-12.7,8.5-20.4V129.4C621,113.3,608,100.4,592.1,95.3
		z"/>
	<polygon points="369,353 390,333 369,313 	"/>
	<polygon points="467,313 446,333 467,353 	"/>
</g>
</svg>
