<?xml version="1.0" encoding="utf-8"?>
<!-- Generator: Adobe Illustrator 27.9.0, SVG Export Plug-In . SVG Version: 6.00 Build 0)  -->
<svg version="1.1"
	 id="Layer_1" xmlns:dc="http://purl.org/dc/elements/1.1/" xmlns:cc="http://creativecommons.org/ns#" xmlns:svg="http://www.w3.org/2000/svg" xmlns:inkscape="http://www.inkscape.org/namespaces/inkscape" xmlns:rdf="http://www.w3.org/1999/02/22-rdf-syntax-ns#" xmlns:sodipodi="http://sodipodi.sourceforge.net/DTD/sodipodi-0.dtd"
	 xmlns="http://www.w3.org/2000/svg" xmlns:xlink="http://www.w3.org/1999/xlink" x="0px" y="0px" viewBox="0 0 667 666"
	 style="enable-background:new 0 0 667 666;" xml:space="preserve">
<style type="text/css">
	.st0{fill:none;stroke:#000000;}
	.st1{font-family:'MyriadPro-Regular';}
	.st2{font-size:55.9996px;}
	.st3{fill:none;stroke:#000000;stroke-width:10.3111;}
	.st4{fill:#FF0000;}
	.st5{fill:none;stroke:#000000;stroke-width:7.5519;}
	.st6{fill:none;stroke:#000000;stroke-width:5;stroke-miterlimit:10;}
</style>
<sodipodi:namedview  bordercolor="#666666" borderopacity="1" gridtolerance="10" guidetolerance="10" id="namedview315" inkscape:current-layer="Layer_1" inkscape:cx="105.58667" inkscape:cy="465.79079" inkscape:pageopacity="0" inkscape:pageshadow="2" inkscape:window-height="987" inkscape:window-maximized="1" inkscape:window-width="1680" inkscape:window-x="1672" inkscape:window-y="-8" inkscape:zoom="1.0022655" objecttolerance="10" pagecolor="#ffffff" showgrid="false">
	</sodipodi:namedview>
<path class="st0" d="M-98,333.9"/>
<text transform="matrix(1 0 0 1 295.1782 629.1498)" class="st1 st2">10 sec</text>
<path class="st3" d="M366.6,9.4H162.4c-8.4,5.7-16.6,9.1-22.6,15l-29.3,29.3c-6,6-9.4,14.1-9.4,22.6v424.1
	c0,17.6,14.3,31.9,31.9,31.9h204.2c8.4,0,16.6-3.4,22.6-9.4l29.3-29.3c6-6,9.4-14.1,9.4-22.6V47C398.5,29.3,384.2,15,366.6,9.4z"/>
<circle class="st4" cx="252.6" cy="398.4" r="9.7"/>
<path class="st5" d="M542.5,79.2l-83.3,1.2c-6.2,4.1-12.1,6.6-16.5,11L421.2,113c-4.4,4.4-6.9,10.3-6.9,16.5v310.6
	c0,12.9,10.5,23.4,23.4,23.4l83.3-1.2c6.2,0,12.1-2.5,16.5-6.9l21.5-21.5c4.4-4.4,6.9-10.3,6.9-16.5V106.8
	C565.9,93.8,555.4,83.3,542.5,79.2z"/>
<polygon points="362.2,287.5 379.2,271.4 362.2,255.2 "/>
<polygon points="441.4,255.2 424.4,271.4 441.4,287.5 "/>
<circle cx="252.6" cy="631.4" r="19"/>
<line class="st6" x1="252.6" y1="546.4" x2="252.6" y2="612.4"/>
</svg>
