<?xml version="1.0" encoding="UTF-8" standalone="no"?><!DOCTYPE svg PUBLIC "-//W3C//DTD SVG 1.1//EN" "http://www.w3.org/Graphics/SVG/1.1/DTD/svg11.dtd"><svg width="100%" height="100%" viewBox="0 0 389 644" version="1.1" xmlns="http://www.w3.org/2000/svg" xmlns:xlink="http://www.w3.org/1999/xlink" xml:space="preserve" xmlns:serif="http://www.serif.com/" style="fill-rule:evenodd;clip-rule:evenodd;"><path d="M205,469.934l0,72.989c0,45.993 37.34,83.334 83.333,83.334c45.993,-0 83.334,-37.341 83.334,-83.334l-0,-333.333c-0,-45.993 -37.341,-83.333 -83.334,-83.333c-1.579,-0 -3.149,0.044 -4.707,0.131" style="fill:none;stroke:#000;stroke-width:8.33px;"/><path d="M283.626,126.388c-43.807,2.444 -78.626,38.789 -78.626,83.202l-0,260.344" style="fill:none;stroke:#000;stroke-width:8.33px;"/><path d="M33.132,604.682c-0,-1.601 -1.299,-2.9 -2.9,-2.9l-5.799,0c-1.6,0 -2.899,1.299 -2.899,2.9l-0,9.661c-0,1.6 1.299,2.9 2.899,2.9l5.799,-0c1.601,-0 2.9,-1.3 2.9,-2.9l-0,-9.661Z"/><path d="M90.659,604.682c0,-1.601 -1.299,-2.9 -2.899,-2.9l-5.799,0c-1.601,0 -2.9,1.299 -2.9,2.9l0,9.661c0,1.6 1.299,2.9 2.9,2.9l5.799,-0c1.6,-0 2.899,-1.3 2.899,-2.9l0,-9.661Z"/><circle cx="288.333" cy="501.257" r="8.333"/><path d="M33.135,431.675l-21.314,21.315c-3.849,3.849 -6.039,9.051 -6.101,14.494l-1.553,136.431l29.102,-0.514l54.904,0l27.452,-0.29l0,-135.488c0,-5.525 -2.195,-10.824 -6.102,-14.731l-21.216,-21.217" style="fill:none;stroke:#000;stroke-width:8.33px;stroke-linecap:round;stroke-linejoin:round;stroke-miterlimit:1.5;"/><path d="M88.307,431.675l-0.134,-0.134l-54.904,0l-0.134,0.134" style="fill:none;stroke:#000;stroke-width:8.33px;stroke-linecap:round;stroke-linejoin:round;stroke-miterlimit:1.5;"/><circle cx="59.872" cy="500.057" r="33.333" style="fill:none;stroke:#000;stroke-width:4.17px;"/><circle cx="59.872" cy="500.057" r="12.5"/><path d="M285.879,278.193c-0,-0 -25.448,44.866 -25.448,64.094c-0,14.045 11.402,25.448 25.448,25.448c14.045,0 25.448,-11.403 25.448,-25.448c-0,-19.228 -25.448,-64.094 -25.448,-64.094Z" style="fill:none;stroke:#000;stroke-width:8.33px;stroke-linecap:round;stroke-linejoin:round;stroke-miterlimit:1.5;"/><path d="M89.657,427.262c0.528,2.741 0.821,4.413 0.821,4.413l-2.171,-0" style="fill:none;stroke:#000;stroke-width:8.33px;stroke-linecap:round;stroke-linejoin:round;stroke-miterlimit:1.5;"/><path d="M88.307,431.675l-55.172,-0" style="fill:none;stroke:#000;stroke-width:8.33px;stroke-linecap:round;stroke-linejoin:round;stroke-miterlimit:1.5;"/><path d="M33.135,431.675l-1.003,-0c0,-0 7.293,-41.611 14.586,-49.933c2.655,-3.029 7.015,-4.804 11.668,-5.324" style="fill:none;stroke:#000;stroke-width:8.33px;stroke-linecap:round;stroke-linejoin:round;stroke-miterlimit:1.5;"/><path d="M58.386,376.418c6.582,-0.735 13.751,1.039 17.505,5.324c5.832,6.654 11.663,34.588 13.766,45.52" style="fill:none;stroke:#000;stroke-width:8.33px;stroke-linecap:round;stroke-linejoin:round;stroke-miterlimit:1.5;"/><path d="M283.626,126.388l-0,-11.352c-0,-61.191 -49.679,-110.869 -110.869,-110.869l-0.115,-0c-61.19,-0 -110.869,49.678 -110.869,110.869l-0.203,260.712" style="fill:none;stroke:#000;stroke-width:8.33px;stroke-linecap:round;stroke-linejoin:round;stroke-miterlimit:1.5;"/></svg>