<svg xmlns="http://www.w3.org/2000/svg" version="1.1" viewBox="-5.0 -10.0 110.0 135.0">
 <g>
  <path d="m88.199 4.1992h-76.398c-5.1016 0-9.3008 4.1992-9.3008 9.3008v27.699c0 5.1016 4.1992 9.3008 9.3008 9.3008h30c1 0 1.8008-0.80078 1.8008-1.8008s-0.80078-1.8008-1.8008-1.8008h-30c-3.1016 0-5.6992-2.6016-5.6992-5.6992v-27.699c0-3.1016 2.6016-5.6992 5.6992-5.6992h76.398c3.1016 0 5.6992 2.6016 5.6992 5.6992v27.699c0 3.1016-2.6016 5.6992-5.6992 5.6992h-22.898c-1 0-1.8008 0.80078-1.8008 1.8008s0.80078 1.8008 1.8008 1.8008h22.898c5.1016 0 9.3008-4.1992 9.3008-9.3008v-27.699c0-5.1992-4.1992-9.3008-9.3008-9.3008z"/>
  <path d="m88.602 59.102c-0.5-1.5-1.6016-2.6016-3-3.3008-1.3984-0.69922-3-0.69922-4.3984-0.19922-0.89844 0.30078-1.6992 0.89844-2.3008 1.6016-1.5-1.6016-3.8984-2.1992-6.1016-1.3984-1 0.39844-1.8008 1-2.5 1.8008-0.39844-0.39844-0.89844-0.69922-1.3984-0.89844-1.3984-0.69922-3-0.69922-4.3984-0.19922-0.69922 0.30078-1.3984 0.69922-1.8984 1.1992l-3.8008-10.398c-1.1016-3-4.3984-4.6016-7.3984-3.5-1.5 0.5-2.6016 1.6016-3.3008 3-0.69922 1.3984-0.69922 3-0.19922 4.3984l9 24.801-4.1992-1.8008c-1.3984-0.60156-3.1016-0.60156-4.5 0-1.3984 0.60156-2.5 1.8008-3.1016 3.1992-0.89844 2.6016 0.10156 5.3984 2.3984 6.8008l15.699 9.3008c2.5 1.5 5.3984 2.3008 8.1992 2.3008 1.8984 0 3.6992-0.30078 5.5-1l8.5-3.1016c3.6016-1.3008 6.3984-3.8984 8-7.3008 1.6016-3.3984 1.8008-7.3008 0.5-10.801zm1.5977 23.898c-1.1992 2.6016-3.3008 4.5-6 5.3984l-8.5 3.1016c-3.5 1.3008-7.3984 0.89844-10.699-1l-15.699-9.3008c-0.89844-0.5-1.1992-1.6016-0.89844-2.5 0.19922-0.5 0.60156-1 1.1016-1.1992s1.1016-0.19922 1.6016 0l8 3.3984c0.69922 0.30078 1.3984 0.10156 1.8984-0.30078 0.5-0.5 0.69922-1.1992 0.5-1.8984l-10.305-28.699c-0.19922-0.60156-0.19922-1.1992 0.10156-1.6992s0.69922-0.89844 1.1992-1.1016c1.1016-0.39844 2.3984 0.19922 2.8008 1.3008l6.8008 18.898c0.30078 0.89844 1.3984 1.3984 2.3008 1.1016 0.89844-0.30078 1.3984-1.3984 1.1016-2.3008l-1.1992-3.5c-0.39844-1.1016 0.19922-2.3984 1.3008-2.8008 0.60156-0.19922 1.1992-0.19922 1.6992 0.10156 0.5 0.19922 0.89844 0.69922 1.1016 1.1992l1.8008 4.8984c0.30078 0.69922 1 1.1992 1.6992 1.1992 0.19922 0 0.39844 0 0.60156-0.10156 0.89844-0.30078 1.3984-1.3984 1.1016-2.3008l-1-2.8008c-0.19922-0.60156-0.19922-1.1016 0.10156-1.6992 0.19922-0.5 0.69922-0.89844 1.3008-1.1016 1.1016-0.39844 2.3984 0.19922 2.8008 1.3008l1.5 4.1992c0.30078 0.69922 1 1.1992 1.6992 1.1992 0.19922 0 0.39844 0 0.60156-0.10156 0.89844-0.30078 1.3984-1.3984 1.1016-2.3008l-0.60156-1.6992c-0.19922-0.60156-0.19922-1.1992 0.10156-1.6992 0.19922-0.5 0.69922-0.89844 1.1992-1.1016 0.60156-0.19922 1.1992-0.19922 1.6992 0.10156 0.5 0.19922 0.89844 0.69922 1.1016 1.1992l5.3008 14.602c0.98438 2.6094 0.88281 5.4062-0.31641 8.0078z"/>
 </g>
<text x="0.0" y="117.5" font-size="5.0" font-weight="bold" font-family="Arbeit Regular, Helvetica, Arial-Unicode, Arial, Sans-serif" fill="#000000">Created by Adrien Coquet</text><text x="0.0" y="122.5" font-size="5.0" font-weight="bold" font-family="Arbeit Regular, Helvetica, Arial-Unicode, Arial, Sans-serif" fill="#000000">from Noun Project</text></svg>