<?xml version="1.0" encoding="utf-8"?>
<!-- Generator: Adobe Illustrator 27.9.0, SVG Export Plug-In . SVG Version: 6.00 Build 0)  -->
<svg version="1.1"
	 id="Layer_1" xmlns:dc="http://purl.org/dc/elements/1.1/" xmlns:cc="http://creativecommons.org/ns#" xmlns:sodipodi="http://sodipodi.sourceforge.net/DTD/sodipodi-0.dtd" xmlns:rdf="http://www.w3.org/1999/02/22-rdf-syntax-ns#" xmlns:svg="http://www.w3.org/2000/svg" xmlns:inkscape="http://www.inkscape.org/namespaces/inkscape"
	 xmlns="http://www.w3.org/2000/svg" xmlns:xlink="http://www.w3.org/1999/xlink" x="0px" y="0px" viewBox="0 0 667 666"
	 style="enable-background:new 0 0 667 666;" xml:space="preserve">
<style type="text/css">
	.st0{fill:none;stroke:#000000;stroke-width:12.7558;}
	.st1{fill-rule:evenodd;clip-rule:evenodd;fill:#999999;stroke:#999999;stroke-width:1.6911;}
	.st2{fill:none;stroke:#999999;stroke-width:28.4183;}
	.st3{fill:none;stroke:#999999;stroke-width:28.4183;stroke-linecap:round;}
	.st4{fill-rule:evenodd;clip-rule:evenodd;fill:#999999;stroke:#999999;stroke-width:0.1569;}
	.st5{fill-rule:evenodd;clip-rule:evenodd;fill:#E74028;stroke:#000000;stroke-width:0.4638;}
</style>
<sodipodi:namedview  bordercolor="#666666" borderopacity="1" gridtolerance="10" guidetolerance="10" id="namedview315" inkscape:current-layer="Layer_1" inkscape:cx="392.17183" inkscape:cy="320.27635" inkscape:pageopacity="0" inkscape:pageshadow="2" inkscape:window-height="987" inkscape:window-maximized="1" inkscape:window-width="1680" inkscape:window-x="-8" inkscape:window-y="-8" inkscape:zoom="1.0022655" objecttolerance="10" pagecolor="#ffffff" showgrid="false">
	</sodipodi:namedview>
<path id="path862" sodipodi:cx="338.64407" sodipodi:cy="350.64407" sodipodi:end="4.7152625" sodipodi:open="true" sodipodi:rx="228.58475" sodipodi:ry="228.58475" sodipodi:start="4.7154259" sodipodi:type="arc" class="st0" d="
	M334,9.2c178.9,0.6,323.6,146,323,325s-146,323.6-325,323S8.4,511.2,9,332.3C9.6,153.5,155,8.6,334,9.2"/>
<g>
	<g>
		
			<path id="path866" sodipodi:cx="338.64407" sodipodi:cy="384.64407" sodipodi:end="4.7152625" sodipodi:open="true" sodipodi:rx="29.044992" sodipodi:ry="29.044992" sodipodi:start="4.7154259" sodipodi:type="arc" class="st1" d="
			M336.6,435.5c23.7,0,42.9,19.4,42.9,43.1s-19.4,42.9-43.1,42.9c-23.7,0-42.9-19.4-42.9-43.1C293.8,454.5,312.9,435.3,336.6,435.5"
			/>
		<g>
			<path id="path872" inkscape:connector-curvature="0" sodipodi:nodetypes="cc" class="st2" d="M381.2,233.6l-1.1,178.1
				c30.5,18.9,43.9,53.9,34,88.5c-9.7,34.6-41.4,58.5-77.4,58.7c-36,0-67.7-23.7-77.7-58.3c-9.9-34.6,3-69.6,33.5-88.8L292,233.6
				c-0.5-16.1,7.9-30.2,21.9-38.5c13.7-8.3,31-8.3,45-0.2C372.9,203,381.4,217.5,381.2,233.6z"/>
		</g>
		<line class="st3" x1="337.3" y1="477" x2="337.3" y2="233"/>
	</g>
	<path class="st4" d="M451,234.2c0,11.4-9.5,20.6-21.3,20.6s-21.3-9.2-21.3-20.6s22-41.4,22-41.4S451,222.8,451,234.2z"/>
	<path class="st4" d="M242.6,389.1c0,11.4-9.5,20.6-21.3,20.6c-11.8,0-21.3-9.2-21.3-20.6s22-41.4,22-41.4S242.6,377.7,242.6,389.1z
		"/>
</g>
<path id="path884" sodipodi:cx="338.64407" sodipodi:cy="476.64407" sodipodi:end="4.7152625" sodipodi:open="true" sodipodi:rx="3.4451487" sodipodi:ry="3.4451487" sodipodi:start="4.7154259" sodipodi:type="arc" class="st5" d="
	M333.5,97.8c6.6,0,11.8,5.3,11.8,11.8c0,6.6-5.3,11.8-11.8,11.8c-6.6,0-11.8-5.3-11.8-11.8C321.7,103.1,326.9,97.8,333.5,97.8"/>
</svg>
