<?xml version="1.0" encoding="utf-8"?>
<!-- Generator: Adobe Illustrator 27.9.0, SVG Export Plug-In . SVG Version: 6.00 Build 0)  -->
<svg version="1.1"
	 id="Layer_1" xmlns:sodipodi="http://sodipodi.sourceforge.net/DTD/sodipodi-0.dtd" xmlns:rdf="http://www.w3.org/1999/02/22-rdf-syntax-ns#" xmlns:inkscape="http://www.inkscape.org/namespaces/inkscape" xmlns:svg="http://www.w3.org/2000/svg" xmlns:dc="http://purl.org/dc/elements/1.1/" xmlns:cc="http://creativecommons.org/ns#"
	 xmlns="http://www.w3.org/2000/svg" xmlns:xlink="http://www.w3.org/1999/xlink" x="0px" y="0px" viewBox="0 0 667 666"
	 style="enable-background:new 0 0 667 666;" xml:space="preserve">
<style type="text/css">
	.st0{fill:none;stroke:#000000;stroke-width:5.4231;stroke-miterlimit:10;}
	.st1{fill:none;stroke:#000000;stroke-width:1.0846;stroke-miterlimit:10;}
	.st2{fill:none;stroke:#000000;stroke-width:1.087;stroke-miterlimit:10;}
	.st3{fill:none;stroke:#000000;stroke-width:2;stroke-miterlimit:10;}
</style>
<sodipodi:namedview  bordercolor="#666666" borderopacity="1" gridtolerance="10" guidetolerance="10" id="namedview315" inkscape:current-layer="Layer_1" inkscape:cx="392.17183" inkscape:cy="320.27635" inkscape:pageopacity="0" inkscape:pageshadow="2" inkscape:window-height="987" inkscape:window-maximized="1" inkscape:window-width="1680" inkscape:window-x="-8" inkscape:window-y="-8" inkscape:zoom="1.0022655" objecttolerance="10" pagecolor="#ffffff" showgrid="false">
	</sodipodi:namedview>
<path class="st0" d="M99.5,634.6L631,579.1l28.2-41.1l-0.5-474.8L641.9,49l-550.2-15L64.5,59l4.3,24.4l0.8,525.4
	C70.3,624.4,84,636.2,99.5,634.6z"/>
<path class="st1" d="M91.7,33.9L35.8,46.1L10.8,71.9v490.7c0,14.4,12.1,25.8,26.5,25l9.3-0.6l23,21.8"/>
<line class="st1" x1="64.5" y1="59" x2="10.8" y2="71.9"/>
<line class="st1" x1="68.8" y1="83.4" x2="10" y2="92"/>
<path class="st2" d="M46.6,587l-11.5-7.8c-6.7-4.5-10.7-12.1-10.7-20.2l0.3-470.2"/>
<ellipse transform="matrix(0.178 -0.984 0.984 0.178 -4.4335 632.967)" class="st3" cx="376.7" cy="319.1" rx="213.8" ry="196.9"/>
<ellipse class="st3" cx="386.2" cy="321.9" rx="185.6" ry="187.7"/>
</svg>
