<?xml version="1.0" encoding="utf-8"?>
<!-- Generator: Adobe Illustrator 27.9.0, SVG Export Plug-In . SVG Version: 6.00 Build 0)  -->
<svg version="1.1"
	 id="Layer_1" xmlns:sodipodi="http://sodipodi.sourceforge.net/DTD/sodipodi-0.dtd" xmlns:rdf="http://www.w3.org/1999/02/22-rdf-syntax-ns#" xmlns:inkscape="http://www.inkscape.org/namespaces/inkscape" xmlns:svg="http://www.w3.org/2000/svg" xmlns:dc="http://purl.org/dc/elements/1.1/" xmlns:cc="http://creativecommons.org/ns#"
	 xmlns="http://www.w3.org/2000/svg" xmlns:xlink="http://www.w3.org/1999/xlink" x="0px" y="0px" viewBox="0 0 667 666"
	 style="enable-background:new 0 0 667 666;" xml:space="preserve">
<style type="text/css">
	.st0{fill:none;stroke:#000000;stroke-width:5.4231;stroke-miterlimit:10;}
	.st1{fill:none;stroke:#000000;stroke-width:1.0846;stroke-miterlimit:10;}
	.st2{fill:none;stroke:#000000;stroke-width:1.087;stroke-miterlimit:10;}
	.st3{fill:none;stroke:#000000;stroke-width:2;stroke-miterlimit:10;}
</style>
<sodipodi:namedview  bordercolor="#666666" borderopacity="1" gridtolerance="10" guidetolerance="10" id="namedview315" inkscape:current-layer="Layer_1" inkscape:cx="105.58667" inkscape:cy="465.79079" inkscape:pageopacity="0" inkscape:pageshadow="2" inkscape:window-height="987" inkscape:window-maximized="1" inkscape:window-width="1680" inkscape:window-x="1672" inkscape:window-y="-8" inkscape:zoom="1.0022655" objecttolerance="10" pagecolor="#ffffff" showgrid="false">
	</sodipodi:namedview>
<path class="st0" d="M94.1,643.7l531.4-55.5l28.2-41.1l-0.5-474.8L636.5,58L86.3,43L59.1,68.1l4.3,24.4l0.8,525.4
	C64.9,633.5,78.6,645.3,94.1,643.7z"/>
<path class="st1" d="M86.3,43L30.4,55.2L5.4,81v490.7c0,14.4,12.1,25.8,26.5,25l9.3-0.6l23,21.8"/>
<line class="st1" x1="59.1" y1="68.1" x2="5.4" y2="81"/>
<line class="st1" x1="63.4" y1="92.4" x2="4.6" y2="101"/>
<path class="st2" d="M41.2,596.1l-11.5-7.8C23,583.7,19,576.1,19,568l0.3-470.2"/>
<ellipse transform="matrix(0.178 -0.984 0.984 0.178 -17.8009 635.101)" class="st3" cx="371.2" cy="328.2" rx="213.8" ry="196.9"/>
<ellipse class="st3" cx="380.8" cy="331" rx="185.6" ry="187.7"/>
</svg>
