<?xml version="1.0" encoding="utf-8"?>
<!-- Generator: Adobe Illustrator 27.9.0, SVG Export Plug-In . SVG Version: 6.00 Build 0)  -->
<svg version="1.1"
	 id="Layer_1" xmlns:dc="http://purl.org/dc/elements/1.1/" xmlns:cc="http://creativecommons.org/ns#" xmlns:svg="http://www.w3.org/2000/svg" xmlns:inkscape="http://www.inkscape.org/namespaces/inkscape" xmlns:rdf="http://www.w3.org/1999/02/22-rdf-syntax-ns#" xmlns:sodipodi="http://sodipodi.sourceforge.net/DTD/sodipodi-0.dtd"
	 xmlns="http://www.w3.org/2000/svg" xmlns:xlink="http://www.w3.org/1999/xlink" x="0px" y="0px" viewBox="0 0 667 666"
	 style="enable-background:new 0 0 667 666;" xml:space="preserve">
<style type="text/css">
	.st0{fill:none;stroke:#000000;stroke-width:12.7006;}
	.st1{fill-rule:evenodd;clip-rule:evenodd;fill:#E74028;stroke:#000000;stroke-width:0.3675;}
	.st2{fill:none;stroke:#000000;stroke-width:4;}
</style>
<sodipodi:namedview  bordercolor="#666666" borderopacity="1" gridtolerance="10" guidetolerance="10" id="namedview315" inkscape:current-layer="Layer_1" inkscape:cx="392.17183" inkscape:cy="320.27635" inkscape:pageopacity="0" inkscape:pageshadow="2" inkscape:window-height="987" inkscape:window-maximized="1" inkscape:window-width="1680" inkscape:window-x="-8" inkscape:window-y="-8" inkscape:zoom="1.0022655" objecttolerance="10" pagecolor="#ffffff" showgrid="false">
	</sodipodi:namedview>
<rect x="297.5" y="651.4" width="73.4" height="14"/>
<path id="path862" sodipodi:cx="338.64407" sodipodi:cy="350.64407" sodipodi:end="4.7152625" sodipodi:open="true" sodipodi:rx="228.58475" sodipodi:ry="228.58475" sodipodi:start="4.7154259" sodipodi:type="arc" class="st0" d="
	M334.5,9.9c178.1,0.6,322.2,145.4,321.6,323.6S510.7,655.6,332.5,655.1C154.3,654.5,10.3,509.6,10.9,331.5
	C11.5,153.4,156.3,9.3,334.5,9.9"/>
<path id="path884" sodipodi:cx="338.64407" sodipodi:cy="476.64407" sodipodi:end="4.7152625" sodipodi:open="true" sodipodi:rx="3.4451487" sodipodi:ry="3.4451487" sodipodi:start="4.7154259" sodipodi:type="arc" class="st1" d="
	M329.3,34.3c5.2,0,9.3,4.2,9.3,9.3c0,5.2-4.2,9.3-9.3,9.3c-5.2,0-9.3-4.2-9.3-9.3S324,34.3,329.3,34.3"/>
<path id="path862_00000167359488176684479180000006387319193688434048_" sodipodi:cx="338.64407" sodipodi:cy="350.64407" sodipodi:end="4.7152625" sodipodi:open="true" sodipodi:rx="228.58475" sodipodi:ry="228.58475" sodipodi:start="4.7154259" sodipodi:type="arc" class="st2" d="
	M334.1,132.2c110.6,0.4,200,90.2,199.6,200.9c-0.4,110.6-90.2,200-200.9,199.6c-110.6-0.4-200-90.3-199.6-200.9
	C133.6,221.3,223.5,131.9,334.1,132.2"/>
</svg>
