<?xml version="1.0" encoding="utf-8"?>
<!-- Generator: Adobe Illustrator 27.9.0, SVG Export Plug-In . SVG Version: 6.00 Build 0)  -->
<svg version="1.1"
	 id="Layer_1" xmlns:inkscape="http://www.inkscape.org/namespaces/inkscape" xmlns:dc="http://purl.org/dc/elements/1.1/" xmlns:cc="http://creativecommons.org/ns#" xmlns:rdf="http://www.w3.org/1999/02/22-rdf-syntax-ns#" xmlns:svg="http://www.w3.org/2000/svg" xmlns:sodipodi="http://sodipodi.sourceforge.net/DTD/sodipodi-0.dtd"
	 xmlns="http://www.w3.org/2000/svg" xmlns:xlink="http://www.w3.org/1999/xlink" x="0px" y="0px" viewBox="0 0 667 666"
	 style="enable-background:new 0 0 667 666;" xml:space="preserve">
<style type="text/css">
	.st0{fill:none;stroke:#000000;}
	.st1{font-family:'MyriadPro-Regular';}
	.st2{font-size:55.9996px;}
	.st3{fill-rule:evenodd;clip-rule:evenodd;fill:none;stroke:#999999;stroke-width:15.7709;}
	.st4{fill:none;stroke:#999999;stroke-width:15.7709;}
	.st5{fill:none;stroke:#999999;stroke-width:15.7709;stroke-linecap:round;}
	.st6{fill:none;stroke:#000000;stroke-width:9.2856;}
	.st7{fill:#FF0000;}
</style>
<sodipodi:namedview  bordercolor="#666666" borderopacity="1" gridtolerance="10" guidetolerance="10" id="namedview315" inkscape:current-layer="Layer_1" inkscape:cx="105.58667" inkscape:cy="465.79079" inkscape:pageopacity="0" inkscape:pageshadow="2" inkscape:window-height="987" inkscape:window-maximized="1" inkscape:window-width="1680" inkscape:window-x="1672" inkscape:window-y="-8" inkscape:zoom="1.0022655" objecttolerance="10" pagecolor="#ffffff" showgrid="false">
	</sodipodi:namedview>
<rect x="296" y="484.2" width="75" height="19.7"/>
<polygon points="393.4,579.9 333.5,516.9 273.6,579.9 "/>
<path class="st0" d="M-98,333.9"/>
<text transform="matrix(1 0 0 1 261.1782 638.1498)" class="st1 st2">10 sec</text>
<g>
	<g>
		
			<path id="path866" sodipodi:cx="338.64407" sodipodi:cy="384.64407" sodipodi:end="4.7152625" sodipodi:open="true" sodipodi:rx="29.044992" sodipodi:ry="29.044992" sodipodi:start="4.7154259" sodipodi:type="arc" class="st3" d="
			M331.5,295.3c16.3,0,29.5,13.4,29.5,29.7c0,16.3-13.4,29.5-29.7,29.5s-29.5-13.4-29.5-29.7C301.8,308.3,315.2,295.1,331.5,295.3"
			/>
		<g>
			<path id="path872" inkscape:connector-curvature="0" sodipodi:nodetypes="cc" class="st4" d="M362.2,156l-0.7,122.9
				c21,13,30.2,37.1,23.4,60.9c-6.7,23.8-28.5,40.3-53.3,40.4c-24.8,0-46.6-16.3-53.5-40.1c-6.8-23.8,2.1-47.9,23.1-61.1l-0.4-123.3
				l0.2,1.1c-0.4-11.1,5.4-21.3,15-27.1c9.5-5.7,21.3-5.7,31-0.2s15.5,15.8,15.4,26.9V156z"/>
		</g>
		<line class="st5" x1="332" y1="292.5" x2="332" y2="155.9"/>
		<line class="st5" x1="362.8" y1="173.2" x2="399.2" y2="173.2"/>
		<line class="st5" x1="363.3" y1="216.5" x2="390.4" y2="216.5"/>
	</g>
</g>
<path class="st6" d="M98.7,51.7v382c0,7.6,3,14.9,8.4,20.3l26.4,26.4c5.4,5.4,12.7,8.4,20.3,8.4h385.6c15.9,0,28.8-12.9,28.8-28.8
	v-382c0-7.6-3-14.9-8.4-20.3l-26.4-26.4C528,26,520.7,23,513.1,17.9H127.5C111.6,23,98.7,35.9,98.7,51.7z"/>
<circle class="st7" cx="333.5" cy="63.9" r="12"/>
</svg>
