<svg xmlns="http://www.w3.org/2000/svg" viewBox="0 0 900 900" width="100%" height="100%">
  <g fill="#000000">
    
    <path d="M 450 34 A 416 416 0 1 1 450 866 A 416 416 0 1 1 450 34 Z M 450 10 A 440 440 0 1 0 450 890 A 440 440 0 1 0 450 10 Z" />

    <rect x="434" y="45" width="12" height="415" />
    <rect x="45" y="454" width="415" height="12" />
    <rect x="454" y="440" width="12" height="415" />
    <rect x="440" y="434" width="415" height="12" />

    <circle cx="270" cy="270" r="16" />

    <circle cx="610" cy="270" r="16" />
    <circle cx="670" cy="270" r="16" />

    <circle cx="270" cy="605" r="16" />
    <circle cx="235" cy="655" r="16" />
    <circle cx="305" cy="655" r="16" />

    <circle cx="610" cy="610" r="16" />
    <circle cx="670" cy="610" r="16" />
    <circle cx="610" cy="670" r="16" />
    <circle cx="670" cy="670" r="16" />
    
  </g>
</svg>
