<?xml version="1.0" encoding="utf-8"?>
<!-- Generator: Adobe Illustrator 27.9.0, SVG Export Plug-In . SVG Version: 6.00 Build 0)  -->
<svg version="1.1"
	 id="Layer_1" xmlns:rdf="http://www.w3.org/1999/02/22-rdf-syntax-ns#" xmlns:sodipodi="http://sodipodi.sourceforge.net/DTD/sodipodi-0.dtd" xmlns:dc="http://purl.org/dc/elements/1.1/" xmlns:inkscape="http://www.inkscape.org/namespaces/inkscape" xmlns:svg="http://www.w3.org/2000/svg" xmlns:cc="http://creativecommons.org/ns#"
	 xmlns="http://www.w3.org/2000/svg" xmlns:xlink="http://www.w3.org/1999/xlink" x="0px" y="0px" viewBox="0 0 667 666"
	 style="enable-background:new 0 0 667 666;" xml:space="preserve">
<style type="text/css">
	.st0{fill:none;stroke:#000000;stroke-width:12.7558;}
	.st1{fill:none;stroke:#666666;stroke-width:15.3186;stroke-linecap:round;stroke-linejoin:round;}
	.st2{fill:none;stroke:#666666;stroke-width:7.6593;stroke-linecap:round;stroke-linejoin:round;}
	.st3{fill:none;stroke:#000000;stroke-width:10;stroke-linecap:round;}
</style>
<sodipodi:namedview  bordercolor="#666666" borderopacity="1" gridtolerance="10" guidetolerance="10" id="namedview315" inkscape:current-layer="Layer_1" inkscape:cx="392.17183" inkscape:cy="320.27635" inkscape:pageopacity="0" inkscape:pageshadow="2" inkscape:window-height="987" inkscape:window-maximized="1" inkscape:window-width="1680" inkscape:window-x="-8" inkscape:window-y="-8" inkscape:zoom="1.0022655" objecttolerance="10" pagecolor="#ffffff" showgrid="false">
	</sodipodi:namedview>
<path class="st0" d="M12,55.4v524.7c0,10.5,4.2,20.5,11.6,27.9l36.3,36.3c7.4,7.4,17.5,11.6,27.9,11.6h529.7
	c21.8,0,39.5-17.7,39.5-39.5V91.7c0-10.5-4.2-20.5-11.6-27.9l-36.3-36.3c-7.4-7.4-17.5-11.6-27.9-18.6H51.5
	C29.7,15.8,12,33.5,12,55.4z"/>
<path class="st1" d="M209.2,352c39.1-26.8,7.7-47.5,36.8-86.6"/>
<path class="st1" d="M259.7,241.7c19.9-29.9,71.3-66.8,137.1-22.2c64.3,43.7,60.9,135.4,16.1,217.5"/>
<path class="st1" d="M213.8,378.8c48.8-14.5,42.9-59.9,44.4-49.8"/>
<path class="st1" d="M263.6,295.3c13.8-84.3,106.5-72,133.3-36"/>
<path class="st1" d="M229.1,401.8c59-36,54.6-57.8,55.1-83.5c0.8-35.2,23.7-61.3,58.2-55.9c34.5,5.4,58.2,36,43.7,90.4"/>
<path class="st2" d="M191.6,410.2"/>
<path class="st3" d="M560,388.4"/>
<path class="st1" d="M248.3,423.2c0,0,13.8,0,36-26"/>
<path class="st1" d="M301.1,375.7c14.6-34.5,0-93.4,39.1-86.6c26.5,4.7,28.3,24.5,21.4,66.6C355.2,395.2,308,450,308,450"/>
<path class="st1" d="M383.1,377.3c0,0-9.2,42.9-55.1,90.4"/>
<path class="st1" d="M367.7,458.5c0,0,75.8-93.4,44.4-173.1"/>
<path class="st1" d="M273.5,440.8c39.8-30.6,61.3-50.6,63.6-120.3"/>
</svg>
