<?xml version="1.0" encoding="utf-8"?>
<!-- Generator: Adobe Illustrator 27.9.0, SVG Export Plug-In . SVG Version: 6.00 Build 0)  -->
<svg version="1.1"
	 id="Layer_1" xmlns:inkscape="http://www.inkscape.org/namespaces/inkscape" xmlns:dc="http://purl.org/dc/elements/1.1/" xmlns:cc="http://creativecommons.org/ns#" xmlns:rdf="http://www.w3.org/1999/02/22-rdf-syntax-ns#" xmlns:svg="http://www.w3.org/2000/svg" xmlns:sodipodi="http://sodipodi.sourceforge.net/DTD/sodipodi-0.dtd"
	 xmlns="http://www.w3.org/2000/svg" xmlns:xlink="http://www.w3.org/1999/xlink" x="0px" y="0px" viewBox="0 0 667 666"
	 style="enable-background:new 0 0 667 666;" xml:space="preserve">
<style type="text/css">
	.st0{fill-rule:evenodd;clip-rule:evenodd;fill:none;stroke:#999999;stroke-width:21.6648;}
	.st1{fill:none;stroke:#999999;stroke-width:21.6648;}
	.st2{fill:none;stroke:#999999;stroke-width:21.6648;stroke-linecap:round;}
	.st3{fill:none;stroke:#000000;stroke-width:12.7558;}
	.st4{fill:#FF0000;}
</style>
<sodipodi:namedview  bordercolor="#666666" borderopacity="1" gridtolerance="10" guidetolerance="10" id="namedview315" inkscape:current-layer="Layer_1" inkscape:cx="392.17183" inkscape:cy="320.27635" inkscape:pageopacity="0" inkscape:pageshadow="2" inkscape:window-height="987" inkscape:window-maximized="1" inkscape:window-width="1680" inkscape:window-x="-8" inkscape:window-y="-8" inkscape:zoom="1.0022655" objecttolerance="10" pagecolor="#ffffff" showgrid="false">
	</sodipodi:namedview>
<g>
	<g>
		
			<path id="path866" sodipodi:cx="338.64407" sodipodi:cy="384.64407" sodipodi:end="4.7152625" sodipodi:open="true" sodipodi:rx="29.044992" sodipodi:ry="29.044992" sodipodi:start="4.7154259" sodipodi:type="arc" class="st0" d="
			M331.3,424.3c22.4,0,40.5,18.3,40.5,40.8s-18.3,40.5-40.8,40.5c-22.5,0-40.5-18.3-40.5-40.8C290.5,442.2,308.9,424.1,331.3,424.3"
			/>
		<g>
			<path id="path872" inkscape:connector-curvature="0" sodipodi:nodetypes="cc" class="st1" d="M373.4,233l-1,168.8
				c28.9,17.9,41.5,50.9,32.1,83.7c-9.2,32.7-39.2,55.3-73.2,55.5c-34,0-64.1-22.4-73.4-55.1c-9.4-32.7,2.8-65.9,31.7-84l-0.6-169.3
				l0.2,1.5c-0.5-15.2,7.4-29.3,20.6-37.2c13-7.8,29.3-7.9,42.5-0.2s21.3,21.7,21.1,37V233z"/>
		</g>
		<line class="st2" x1="331.9" y1="420.5" x2="331.9" y2="232.8"/>
		<line class="st2" x1="374.2" y1="256.6" x2="424.3" y2="256.6"/>
		<line class="st2" x1="374.9" y1="316" x2="412.2" y2="316"/>
	</g>
</g>
<path class="st3" d="M12,55.4v524.7c0,10.5,4.2,20.5,11.6,27.9l36.3,36.3c7.4,7.4,17.5,11.6,27.9,11.6h529.7
	c21.8,0,39.5-17.7,39.5-39.5V91.7c0-10.5-4.2-20.5-11.6-27.9l-36.3-36.3c-7.4-7.4-17.5-11.6-27.9-18.6H51.5
	C29.7,15.8,12,33.5,12,55.4z"/>
<circle class="st4" cx="333.5" cy="95.2" r="12"/>
</svg>
