<?xml version="1.0" encoding="utf-8"?>
<!-- Generator: Adobe Illustrator 27.9.0, SVG Export Plug-In . SVG Version: 6.00 Build 0)  -->
<svg version="1.1"
	 id="Layer_1" xmlns:rdf="http://www.w3.org/1999/02/22-rdf-syntax-ns#" xmlns:sodipodi="http://sodipodi.sourceforge.net/DTD/sodipodi-0.dtd" xmlns:dc="http://purl.org/dc/elements/1.1/" xmlns:inkscape="http://www.inkscape.org/namespaces/inkscape" xmlns:svg="http://www.w3.org/2000/svg" xmlns:cc="http://creativecommons.org/ns#"
	 xmlns="http://www.w3.org/2000/svg" xmlns:xlink="http://www.w3.org/1999/xlink" x="0px" y="0px" viewBox="0 0 667 666"
	 style="enable-background:new 0 0 667 666;" xml:space="preserve">
<style type="text/css">
	.st0{fill:none;stroke:#000000;}
	.st1{font-family:'MyriadPro-Regular';}
	.st2{font-size:55.9996px;}
	.st3{fill:none;stroke:#000000;stroke-width:12.7625;}
	.st4{fill:#FF0000;}
	.st5{fill:none;stroke:#000000;stroke-width:5;stroke-miterlimit:10;}
	.st6{fill:none;stroke:#000000;stroke-width:6.0066;stroke-miterlimit:10;}
	.st7{fill:none;stroke:#000000;stroke-width:1.9583;stroke-miterlimit:10;}
	.st8{font-size:36.4158px;}
</style>
<sodipodi:namedview  bordercolor="#666666" borderopacity="1" gridtolerance="10" guidetolerance="10" id="namedview315" inkscape:current-layer="Layer_1" inkscape:cx="105.58667" inkscape:cy="465.79079" inkscape:pageopacity="0" inkscape:pageshadow="2" inkscape:window-height="987" inkscape:window-maximized="1" inkscape:window-width="1680" inkscape:window-x="1672" inkscape:window-y="-8" inkscape:zoom="1.0022655" objecttolerance="10" pagecolor="#ffffff" showgrid="false">
	</sodipodi:namedview>
<polygon points="497.4,383.5 488.2,453 548.8,417.7 "/>
<path class="st0" d="M-98,333.9"/>
<text transform="matrix(0.8329 0.5534 -0.5534 0.8329 474.6815 345.8752)" class="st1 st2">10 sec</text>
<path class="st3" d="M49.3,657.1h530c10.4-7,20.5-11.1,27.9-18.4l36.3-36.3c7.4-7.4,11.5-17.5,11.5-27.9v-525
	c0-21.9-17.7-39.6-39.6-39.6h-530C75,9.9,65,14,57.5,21.4L21.2,57.7C13.8,65.2,9.7,75.2,9.7,85.6v525
	C9.7,632.4,27.4,650.1,49.3,657.1z"/>
<circle class="st4" cx="359.5" cy="536.2" r="10.5"/>
<circle class="st5" cx="120.2" cy="133.1" r="30"/>
<circle class="st5" cx="532.5" cy="557.9" r="30"/>
<circle class="st5" cx="120.2" cy="557.9" r="30"/>
<circle class="st5" cx="532.5" cy="133.1" r="30"/>
<circle class="st6" cx="218" cy="348.4" r="182"/>
<g>
	<g>
		<path d="M142.1,269.8c-1.2,2.5-4.2,6.6-8.5,11.6c-9.7,11.3-21.6,19.4-34.6,13.6c-12.2-5.2-13.4-25.8,2.5-44
			c6.3-7.1,11.5-10.1,13.8-11.2c0.4,1.6,0.9,3.2,1.4,4.8c-3.2,1.6-7.4,4.6-11.5,9.2c-11.6,13.2-11.7,27.5-1.9,32.8
			c9.3,5.1,19,0.8,27.8-9.4c2.9-3.3,5.5-7,7-9.7C139.4,268.3,140.7,269,142.1,269.8z"/>
		<path d="M123.9,232c3.4-3.3,8.8-7.4,14.4-10.6c8.6-5,15-6.5,19.9-5.9c4,0.4,6.8,2.5,8,5.6c1.9,5.3-1.6,10.4-6.7,14.5
			c0,0.1,0.1,0.1,0.1,0.2c4.8-1,8.5,0.8,11.4,4.4c3.9,4.8,6.5,8.3,8,9.4c-2.1,0.7-4.3,1.6-6.4,2.5c-1.2-0.8-3.8-3.7-7.5-7.8
			c-4-4.6-8-5.3-14.2-1.9c-2.1,1.2-4.2,2.5-6.3,3.9c3.4,5.1,6.9,10.2,10.3,15.3c-1.9,1.2-3.7,2.5-5.5,3.9
			C141,254.3,132.5,243.1,123.9,232z M142.4,242.7c2.3-1.5,4.6-3,7-4.3c7.4-4.2,11.1-9.2,9.2-13.6c-2.2-5-9.2-4.8-17.5-0.1
			c-3.8,2.2-6.3,4.1-7.3,5.1C136.6,234.1,139.5,238.4,142.4,242.7z"/>
		<path d="M183.8,248c-0.3-1.1-0.7-2.2-1-3.2c1.3-1.9,2.7-3.7,4.1-5.5c10.7-12.7,18-18.1,17.4-24.3c-0.3-4.1-3.8-7.9-13.6-6.4
			c-5.9,1-10.3,3.9-12.7,6.2c-1.2-1-2.5-2-3.8-3c3.7-3.5,9.8-6.8,17.5-8c14.6-2,20.8,4.5,20.8,10.1c0.2,7.5-8,13.5-17.4,23.5
			c-1.2,1.2-2.4,2.5-3.5,3.7c0,0,0,0.1,0,0.1c7.5-1.5,15.1-2.3,22.7-2.4c0,1.5,0,3,0.1,4.6C204.2,243.5,193.8,245,183.8,248z"/>
		<path d="M242.2,246.7c0.9-3.6,1.8-7.1,2.7-10.7c-8.1-2-16.4-3.2-24.7-3.5c0-1.2,0.1-2.4,0.1-3.6c8.5-8.3,18.8-15.7,30.5-21.7
			c3.2,0.8,6.3,1.7,9.5,2.6c-2.5,8-5,16-7.5,24c2.5,0.8,5,1.6,7.4,2.6c-0.5,1.3-1,2.7-1.5,4c-2.4-0.9-4.8-1.7-7.2-2.5
			c-1.1,3.5-2.2,7-3.3,10.5C246.2,247.8,244.2,247.2,242.2,246.7z M245.9,231.9c1.1-4.4,2.2-8.7,3.3-13.1c0.5-2.1,1.1-4.1,1.8-6.1
			c-0.1,0-0.2,0-0.3-0.1c-2.5,1.8-4.4,3.2-6.5,4.6c-5.9,3.4-11.4,7.2-16.3,11.4c0,0,0,0.1,0,0.1
			C233.9,229.3,239.9,230.4,245.9,231.9z"/>
		<path d="M307.4,240.7c-6.6-5.5-13.6-10.4-20.9-14.5c-2.4,2.6-4.8,5.2-7.1,7.9c1.3,0.6,2.5,1.1,4.5,2.3c4.1,2.4,7.7,5.7,9.8,9.1
			c2.8,4.3,3.6,9.6,0.3,13.4c-5.2,5.9-14.9,5-24-0.2c-4.7-2.7-8.3-5.7-10-7.8c1.1-1,2.2-2.1,3.3-3.1c1.6,1.8,4.8,4.7,8.8,7.1
			c5.6,3.2,12.2,4,15.4-0.3c3-4.1,1.3-10.6-9.2-16.5c-3-1.6-5.5-2.6-7.5-3.3c3.9-5.3,7.9-10.5,12.2-15.6c9.7,4.9,18.9,11,27.4,18.1
			C309.3,238.4,308.4,239.5,307.4,240.7z"/>
		<path d="M331,295c-12.3,5.7-21.9,2.3-28.7-7.1c-6-8.2-5.8-18,3.2-27.9c9.1-9.8,21.9-8.1,30.8,4.4C345.4,277.6,342.4,289.8,331,295
			z M311.1,266.2c-7.7,7.1-9.1,14.2-5.2,19.6c4.4,6.2,11.7,6.4,20.6,1.3c8.5-4.8,11.9-12.3,6-20.7
			C327.5,259.4,319.1,258.8,311.1,266.2z"/>
	</g>
</g>
<circle class="st7" cx="462" cy="493.6" r="11.8"/>
<text transform="matrix(-1.272 0 0 -1 472.8633 444.5851)" class="st1 st8">RST</text>
<text transform="matrix(-1.272 0 0 -1 389 564.4444)" class="st1 st8">LED</text>
</svg>
