<?xml version="1.0" encoding="UTF-8" standalone="no"?>
<!-- Created with Inkscape (http://www.inkscape.org/) -->

<svg
   width="960"
   height="960"
   viewBox="0 0 253.99999 254"
   version="1.1"
   id="svg1"
   xml:space="preserve"
   inkscape:export-filename="icon.svg"
   inkscape:export-xdpi="96"
   inkscape:export-ydpi="96"
   xmlns:inkscape="http://www.inkscape.org/namespaces/inkscape"
   xmlns:sodipodi="http://sodipodi.sourceforge.net/DTD/sodipodi-0.dtd"
   xmlns="http://www.w3.org/2000/svg"
   xmlns:svg="http://www.w3.org/2000/svg"><sodipodi:namedview
     id="namedview1"
     pagecolor="#ffffff"
     bordercolor="#000000"
     borderopacity="0.25"
     inkscape:showpageshadow="2"
     inkscape:pageopacity="0.0"
     inkscape:pagecheckerboard="0"
     inkscape:deskcolor="#d1d1d1"
     inkscape:document-units="mm" /><defs
     id="defs1" /><g
     inkscape:label="Livello 1"
     inkscape:groupmode="layer"
     id="layer1"><path
       style="fill:#000000;stroke-width:0.61399"
       d="m 69.693637,237.43757 c 6.367735,-0.25061 9.853464,-0.38913 11.534378,-0.4584 1.116885,-0.0461 4.845251,-0.19236 8.285257,-0.3252 3.440007,-0.13284 6.985609,-0.27723 7.879117,-0.32087 3.375481,-0.16485 8.533171,-0.3954 10.803331,-0.48291 1.29558,-0.0499 4.91429,-0.19844 8.04157,-0.32997 6.89082,-0.28984 19.84836,-0.80593 28.34858,-1.12911 3.44,-0.1308 7.09526,-0.27756 8.1228,-0.32614 3.80227,-0.17977 9.2159,-0.4186 16.57051,-0.73102 4.15482,-0.1765 8.35836,-0.36007 9.34122,-0.40794 0.98286,-0.0479 3.83397,-0.15877 6.33579,-0.24643 2.50182,-0.0877 5.46258,-0.19769 6.57947,-0.24449 2.30996,-0.0968 11.90529,-0.48575 17.95139,-0.72773 10.25233,-0.41034 12.15295,-0.52025 14.08509,-0.81458 2.2466,-0.34224 4.51493,-0.87949 6.54682,-1.55064 1.90479,-0.62916 5.73517,-2.54615 7.53217,-3.76962 1.41744,-0.96504 1.94634,-1.3614 3.51108,-2.63118 2.0196,-1.63889 5.36929,-5.5222 7.12922,-8.26493 2.46241,-3.83749 4.5578,-9.47993 5.4094,-14.56636 C 253.98827,198.39325 254,195.51601 254,126.76549 V 55.207844 l -0.37168,-2.309618 c -1.83189,-11.383395 -8.1513,-20.878489 -17.6573,-26.530565 -2.6079,-1.550608 -3.96163,-2.156373 -7.21405,-3.228125 -1.54493,-0.509094 -3.87016,-1.049504 -5.66485,-1.316577 -1.0245,-0.152457 -11.09689,-0.572411 -23.27121,-0.97026 -2.90389,-0.0949 -9.2275,-0.314292 -14.05244,-0.487541 -9.15687,-0.328797 -12.90388,-0.450682 -29.97314,-0.974981 -5.67378,-0.174276 -11.48564,-0.356315 -12.91525,-0.404531 -1.42962,-0.04822 -4.7559,-0.160641 -7.39175,-0.249836 -2.63585,-0.0892 -7.09527,-0.235558 -9.90982,-0.325253 -2.81455,-0.08969 -8.26089,-0.269734 -12.10297,-0.400086 -3.84209,-0.130353 -10.2388,-0.34558 -14.214906,-0.47828 -3.976111,-0.1327 -8.398976,-0.282128 -9.828591,-0.332062 -1.429613,-0.04994 -6.218002,-0.197693 -10.64087,-0.328354 -4.422865,-0.130661 -8.772623,-0.272966 -9.666134,-0.316232 -2.42729,-0.117536 -7.092953,0.317097 -11.251102,1.048103 -2.032167,0.357257 -5.888008,1.018429 -8.568531,1.46927 -11.685102,1.965337 -19.23955,3.385071 -22.175249,4.167472 C 16.741029,26.009223 8.428007,32.919665 3.721556,42.699468 1.89675,46.491344 0.94654,49.682064 0.32608,54.101215 0.00366,56.397559 0,57.218955 0,127.16203 c 0,62.79696 0.0281,70.95286 0.25048,72.649 0.56032,4.2741 1.37132,7.00971 3.427866,11.56264 0.599754,1.32777 2.744135,4.81944 3.907063,6.36182 4.518196,5.99242 10.697844,10.52792 17.595276,12.91391 2.041189,0.7061 3.473361,1.06606 6.823153,1.71501 5.578172,1.08062 17.651542,3.46094 20.583129,4.05806 5.13679,1.04626 4.945869,1.02785 10.770886,1.03944 2.993252,0.006 5.844354,-0.005 6.335784,-0.0243 z m -5.024001,-4.60049 c -2.133704,-0.2133 -5.554541,-1.03311 -7.485113,-1.79382 -10.057659,-3.96305 -17.540435,-12.34911 -20.22602,-22.66758 -0.878991,-3.37726 -1.112293,-5.73123 -1.125102,-11.3521 -0.01029,-4.51336 0.02026,-5.19965 0.231838,-5.20854 0.134026,-0.006 2.912024,-0.0632 6.173329,-0.12799 3.261304,-0.0648 6.368276,-0.14849 6.904381,-0.18604 0.536105,-0.0376 3.094787,-0.10871 5.685962,-0.15811 2.591173,-0.0494 5.588487,-0.12682 6.660698,-0.17205 1.072208,-0.0453 5.421968,-0.1535 9.666131,-0.2406 7.221051,-0.14819 8.932989,-0.19086 16.489288,-0.41103 1.608315,-0.0468 7.56639,-0.19072 13.240162,-0.31969 5.67378,-0.12897 11.48565,-0.27356 12.91526,-0.3213 1.42961,-0.0478 5.30419,-0.15815 8.61017,-0.24536 3.30598,-0.0872 7.43642,-0.1977 9.17876,-0.24556 4.02427,-0.11054 14.20398,-0.36776 19.16981,-0.4844 2.09975,-0.0493 6.81503,-0.16001 10.47842,-0.24599 3.66338,-0.086 8.1959,-0.19491 10.07227,-0.24209 1.87637,-0.0472 6.33579,-0.15691 9.90982,-0.24384 3.57403,-0.087 7.88724,-0.19693 9.58491,-0.24439 1.69766,-0.0475 6.08398,-0.15653 9.74736,-0.24235 3.66338,-0.0858 7.90349,-0.19595 9.42245,-0.24473 2.70434,-0.0868 10.92485,-0.31335 17.7077,-0.48791 6.77517,-0.17437 15.17831,-0.40158 18.56061,-0.50188 l 3.45218,-0.10236 v 5.31725 c 0,3.98621 -0.0637,5.74945 -0.25469,7.0438 -1.64042,11.11981 -8.07148,20.36713 -17.35552,24.95572 -2.49522,1.23325 -5.05026,2.17322 -7.03692,2.5888 -2.57003,0.5376 -4.03248,0.63623 -15.72319,1.06044 -2.50182,0.0908 -5.46258,0.20337 -6.57947,0.25022 -3.02646,0.12693 -9.65827,0.38728 -12.42788,0.48789 -3.9294,0.14274 -17.88716,0.7121 -21.76911,0.88799 -1.96572,0.0891 -5.47477,0.23808 -7.79789,0.33114 -2.32312,0.0931 -6.67288,0.27464 -9.66613,0.4035 -2.99326,0.12886 -7.34302,0.31124 -9.66614,0.40527 -2.32312,0.0941 -5.83217,0.24277 -7.79789,0.33049 -1.96572,0.0877 -5.36511,0.2335 -7.5542,0.32391 -8.88184,0.36688 -15.44496,0.64686 -17.05789,0.72771 -2.21735,0.11114 -12.004972,0.50282 -20.225769,0.80938 -3.574034,0.13327 -7.265848,0.27908 -8.204031,0.324 -0.938183,0.0449 -3.167891,0.12868 -4.954908,0.18611 -1.787017,0.0574 -3.273602,0.12546 -3.303521,0.15116 -0.155953,0.13395 -6.097892,0.0601 -7.650125,-0.0951 z m 7.94821,-12.33346 c 0.580779,-0.15898 1.445583,-0.44601 1.921782,-0.63785 2.92979,-1.18032 5.750444,-4.50618 6.697554,-7.89713 0.50781,-1.81812 0.503286,-4.55633 -0.01019,-6.17296 -0.737711,-2.32258 -2.056363,-4.35663 -3.724032,-5.7444 -1.298186,-1.0803 -2.094073,-1.531 -3.666688,-2.07643 -1.161381,-0.40281 -1.524336,-0.4508 -3.411577,-0.45122 -2.453937,-5.3e-4 -3.610936,0.28533 -5.570072,1.37629 -1.420006,0.79073 -3.448479,2.7541 -4.246055,4.10979 -0.7645,1.29947 -1.425924,3.24492 -1.664731,4.8965 -0.501164,3.46601 0.805214,7.33103 3.305442,9.77943 1.335908,1.30823 2.617081,2.06193 4.513696,2.65542 1.299554,0.40664 1.788729,0.47865 3.167894,0.46625 1.016055,-0.009 2.029161,-0.12364 2.686984,-0.30369 z m 24.64095,-0.66133 c 6.406054,-1.15298 10.886174,-8.20068 9.239024,-14.53395 -0.13942,-0.53607 -0.5935,-1.66755 -1.00906,-2.51438 -1.03995,-2.11921 -2.78505,-3.89033 -4.77515,-4.84636 -1.778268,-0.85426 -3.103297,-1.18203 -4.840029,-1.19725 -1.674173,-0.0147 -2.901966,0.21961 -4.410239,0.84153 -10.229252,4.21797 -8.966086,19.43781 1.055367,22.01374 1.225235,0.31493 3.636378,0.43533 4.740087,0.23667 z m 25.837064,-1.04784 c 1.12963,-0.31637 3.014,-1.26948 4.06863,-2.05789 3.09036,-2.31029 4.95783,-6.82256 4.45879,-10.77349 -0.35319,-2.79621 -1.49466,-5.16286 -3.36038,-6.9672 -1.05255,-1.01793 -2.94871,-2.1297 -4.39018,-2.5741 -1.76436,-0.54394 -4.42025,-0.50446 -6.25455,0.093 -1.91606,0.62407 -3.45155,1.56814 -4.79246,2.94657 -1.3134,1.35016 -2.05655,2.5178 -2.60361,4.09078 -1.80629,5.19368 -0.0237,10.89677 4.30538,13.7746 1.79936,1.19614 3.09992,1.57805 5.60875,1.64706 1.51205,0.0416 2.35272,-0.009 2.95963,-0.17932 z m 24.33298,-0.80156 c 3.2742,-0.75829 5.76683,-2.59877 7.43739,-5.49155 1.1539,-1.9981 1.44815,-3.06523 1.53852,-5.57963 0.0653,-1.81696 0.0266,-2.30386 -0.26825,-3.37875 -0.8791,-3.20415 -2.97433,-5.77254 -5.85583,-7.17821 -1.6931,-0.82595 -3.11164,-1.09751 -5.20743,-0.99692 -5.25032,0.25202 -9.32956,3.91076 -10.48526,9.40443 -1.1696,5.55978 2.14255,11.29923 7.47982,12.96135 1.45333,0.4526 3.99544,0.57555 5.36104,0.25928 z m 24.41733,-0.81573 c 3.72975,-0.70979 7.05709,-3.69259 8.39701,-7.5275 1.55624,-4.45405 0.52725,-8.94399 -2.78939,-12.17146 -1.49455,-1.45437 -3.04781,-2.25202 -5.28531,-2.71416 -2.05412,-0.42425 -3.68109,-0.26812 -5.97596,0.5735 -2.60487,0.9553 -5.31566,3.70788 -6.3353,6.43296 -0.92449,2.47076 -1.0286,5.56213 -0.26697,7.92732 1.7088,5.30664 6.92994,8.49291 12.25592,7.47934 z m 24.23826,-0.7571 c 1.57931,-0.30831 3.735,-1.39986 5.04837,-2.55627 2.77023,-2.43917 4.42272,-6.89799 3.87196,-10.4475 -0.42773,-2.7566 -1.31112,-4.55157 -3.15285,-6.40633 -2.07118,-2.08583 -4.5691,-3.1541 -7.37518,-3.1541 -1.6735,0 -3.14189,0.34288 -4.62497,1.07998 -2.38264,1.18419 -4.0424,2.85625 -5.13609,5.17421 -1.49529,3.1691 -1.60458,6.95146 -0.28817,9.97293 1.98996,4.56742 6.93929,7.25803 11.65693,6.33708 z m 23.88104,-0.87642 c 2.37093,-0.53534 4.0669,-1.43358 5.64954,-2.99222 1.13125,-1.1141 1.86486,-2.24468 2.54319,-3.91937 1.99405,-4.92304 0.44241,-10.59012 -3.71101,-13.55377 -1.8631,-1.32939 -3.68955,-1.8959 -6.0894,-1.88873 -2.64441,0.008 -4.33773,0.62846 -6.55581,2.40247 -3.21279,2.5696 -4.68456,6.69413 -4.02217,11.27186 0.55908,3.86378 3.77148,7.52533 7.47566,8.52092 1.35942,0.36538 3.47872,0.43684 4.71,0.15884 z m -180.943885,13.7935 c -2.935663,-0.60476 -4.760267,-1.30735 -7.261431,-2.79614 -1.444588,-0.85987 -3.768889,-2.60894 -5.032961,-3.78741 -2.20104,-2.05193 -5.013004,-5.80339 -6.379341,-8.5107 -1.110459,-2.2003 -2.690156,-6.52211 -3.050114,-8.34464 -0.253743,-1.28474 -0.583365,-3.7772 -0.7244,-5.47759 -0.211029,-2.54428 -0.191226,-144.307807 0.02052,-146.918506 0.55064,-6.788962 3.42781,-13.911295 7.645031,-18.925007 2.415445,-2.871641 6.12603,-5.81091 9.633189,-7.630747 2.07616,-1.077302 2.805693,-1.28472 6.823154,-1.939932 1.965718,-0.320592 3.921282,-0.645325 4.345698,-0.72163 0.424417,-0.07631 0.767893,-0.09444 0.763282,-0.04028 -0.0046,0.05416 -0.31531,0.343572 -0.690439,0.643153 -2.923909,2.335054 -5.904856,5.783269 -8.044483,9.305469 -3.481373,5.730946 -5.105733,10.990995 -5.551407,17.976733 -0.104259,1.634216 -0.162928,26.64009 -0.163297,69.600347 -3.18e-4,36.87738 -0.06095,67.04976 -0.134754,67.04976 -0.0738,0 -0.91837,-0.11007 -1.876828,-0.2446 -1.964314,-0.27573 -2.404688,-0.21948 -2.865245,0.36599 -0.308609,0.39231 -0.322342,0.6721 -0.322342,6.56724 0,6.49466 0.09365,7.96431 0.73323,11.50692 1.48473,8.22381 6.0736,15.98817 12.506936,21.1617 1.980557,1.59272 1.965227,1.57926 1.797532,1.57926 -0.07463,0 -1.051822,-0.18873 -2.171534,-0.41939 z m 1.917335,-3.73282 c -4.151412,-3.51393 -7.150277,-7.5984 -9.173523,-12.4944 -2.028962,-4.90985 -2.848223,-10.07833 -2.848223,-17.96862 v -3.54078 l 1.177806,0.0942 c 0.647793,0.0518 1.193164,0.10558 1.211936,0.11943 0.01877,0.0139 0.04651,2.2516 0.06164,4.97276 0.03673,6.60624 0.380463,9.67802 1.509978,13.49397 1.788404,6.04198 4.366531,10.62791 8.614643,15.32365 1.495158,1.6527 1.39852,1.65266 -0.554255,-2.5e-4 z m -16.022693,0.16043 C 18.927052,223.33202 13.014361,218.38069 9.65668,212.98631 7.631328,209.73241 6.269126,206.53331 5.368121,202.9147 4.319024,198.70132 4.392557,204.39397 4.38929,127.13658 4.38599,49.190907 4.29996,55.422667 5.44055,50.985905 7.808523,41.774739 13.08137,34.870511 21.238308,30.300432 c 0.824946,-0.462191 1.548693,-0.840347 1.608329,-0.840347 0.05964,0 0.481259,-0.174778 0.93694,-0.388393 2.230585,-1.045663 3.664363,-1.379915 2.521954,-0.587934 -2.028411,1.406206 -4.910879,4.609002 -6.936343,7.707177 -2.773971,4.243101 -4.912259,10.412533 -5.577692,16.092872 -0.309736,2.644005 -0.324806,147.317113 -0.01562,149.938053 1.046323,8.8695 4.777782,16.67595 10.657312,22.29577 1.573822,1.5043 1.659258,1.72489 0.483037,1.24712 z M 35.821555,120.34886 c 0,-56.595117 0.03812,-68.807406 0.218527,-70.01441 0.977712,-6.54121 2.82897,-11.208311 6.389874,-16.109148 4.641132,-6.387542 11.782571,-11.041434 19.258913,-12.550538 3.562075,-0.719006 4.673089,-0.750771 14.340554,-0.410005 1.295585,0.04567 6.047425,0.190219 10.55964,0.321225 4.512217,0.131006 10.506845,0.31324 13.321395,0.404965 23.623242,0.769874 32.251502,1.055079 39.070672,1.291475 2.59117,0.08982 5.6616,0.201655 6.82316,0.248508 1.16155,0.04685 5.58442,0.193225 9.82858,0.325268 4.24417,0.132042 9.72706,0.314265 12.18421,0.404937 2.45714,0.09068 7.02622,0.236157 10.1535,0.3233 3.12728,0.08714 6.67288,0.196458 7.87912,0.242924 1.20623,0.04647 4.56907,0.158972 7.47297,0.250016 2.90391,0.09105 7.03435,0.235117 9.17877,0.320161 2.14442,0.08505 5.69002,0.194163 7.87912,0.242485 4.43496,0.09789 7.63631,0.209562 9.82859,0.342828 5.88796,0.357923 11.61758,2.498624 16.44912,6.145712 1.81348,1.368909 4.9131,4.476796 6.2494,6.266075 3.29212,4.408099 5.39664,9.392777 6.41264,15.188741 0.2676,1.526601 0.28757,5.486463 0.33148,65.732211 l 0.0467,64.10774 -0.61102,0.0772 c -0.33606,0.0425 -1.63448,0.0891 -2.8854,0.10364 -2.60283,0.0302 -16.21452,0.39227 -28.02366,0.74533 -7.60292,0.22731 -19.38509,0.5292 -34.92804,0.89494 -3.79742,0.0894 -8.07407,0.1984 -9.50368,0.24233 -1.42961,0.0439 -4.42693,0.1182 -6.6607,0.16506 -4.76865,0.10005 -8.74514,0.19034 -17.95139,0.4076 -3.70806,0.0875 -9.92201,0.23351 -13.80876,0.32444 -8.55043,0.20004 -23.20283,0.56818 -35.415417,0.88982 -4.958972,0.13061 -10.734284,0.27708 -12.834027,0.32549 -2.099744,0.0484 -5.060506,0.12294 -6.579468,0.1656 -1.518965,0.0427 -4.370068,0.11547 -6.335787,0.16175 -1.965716,0.0463 -6.205821,0.15508 -9.42245,0.24175 -3.21663,0.0867 -9.065046,0.23925 -12.996482,0.33904 -3.931435,0.0998 -8.75638,0.23769 -10.722098,0.30643 -1.965717,0.0687 -3.939558,0.11655 -4.386312,0.10624 l -0.81228,-0.0188 z M 170.09146,69.573732 c 6.21261,-0.766987 12.01162,-5.121346 14.89059,-11.181041 2.72057,-5.726303 2.65368,-12.093943 -0.18703,-17.805026 -1.20617,-2.424945 -2.23124,-3.864744 -4.01365,-5.637559 -2.28725,-2.27494 -5.04538,-3.928028 -8.0346,-4.81555 -2.15652,-0.640286 -3.35438,-0.800751 -6.79794,-0.910638 -1.60831,-0.05132 -5.22702,-0.16497 -8.04157,-0.252548 -2.81455,-0.08757 -6.03118,-0.196505 -7.14807,-0.24206 -1.11688,-0.04556 -4.29696,-0.156011 -7.06683,-0.245458 -2.76988,-0.08944 -7.19274,-0.241762 -9.82859,-0.338479 -8.00461,-0.293708 -11.2434,-0.276406 -12.7528,0.06813 -5.28871,1.207193 -8.99966,3.562285 -12.07506,7.663218 -2.82044,3.760963 -4.23789,8.389898 -4.02924,13.158161 0.1415,3.23379 0.66954,5.292267 2.12521,8.284769 1.37788,2.832589 3.1309,5.04538 5.52483,6.973845 3.01084,2.425427 6.14665,3.794654 9.83514,4.294431 0.67013,0.0908 3.44812,0.20863 6.17332,0.261842 4.84814,0.09466 14.15456,0.312336 21.11929,0.493967 7.3963,0.192886 17.34467,0.400105 18.2763,0.380684 0.53611,-0.01116 1.44992,-0.07899 2.0307,-0.150684 z M 152.1672,66.501489 c -7.52039,-0.176701 -17.06107,-0.398809 -21.2015,-0.493575 -7.72255,-0.176752 -9.21786,-0.304197 -11.07388,-0.943834 -2.15353,-0.742168 -4.52574,-2.190599 -6.32383,-3.861225 -6.38503,-5.932399 -7.52401,-15.684795 -2.68274,-22.970664 2.31587,-3.48526 6.31932,-6.160913 10.73125,-7.172076 1.1284,-0.258617 8.1147,-0.253578 13.30323,0.0096 1.78701,0.09064 4.56502,0.205337 6.17333,0.254882 1.60832,0.04955 3.83802,0.126975 4.95491,0.172067 1.11689,0.04509 4.62594,0.152493 7.79788,0.238671 13.0926,0.355707 14.81517,0.434412 16.36329,0.747644 5.94743,1.203352 11.10452,5.868043 12.93401,11.699053 1.69466,5.401323 0.97809,10.666103 -2.07312,15.231417 -2.25736,3.377535 -5.99204,6.083978 -9.53645,6.910868 -2.50286,0.583901 -2.18134,0.580959 -19.36638,0.177178 z m 18.24917,-3.574909 c 0.67013,-0.177274 1.98603,-0.698158 2.92421,-1.157519 1.50554,-0.737151 1.87744,-1.010071 3.1679,-2.324785 3.6304,-3.698651 4.9601,-8.701391 3.5788,-13.464603 -0.75296,-2.596483 -2.11146,-4.755086 -4.25416,-6.759695 -1.61989,-1.515494 -3.62425,-2.585423 -5.83203,-3.113137 -1.90797,-0.456053 -4.90486,-0.377603 -6.65155,0.174117 -4.27052,1.348913 -7.34152,4.362381 -8.82482,8.659489 -0.52376,1.517345 -0.57841,1.851885 -0.64533,3.950275 -0.0664,2.082261 -0.0342,2.443638 0.35129,3.939883 0.90954,3.530505 2.82576,6.246676 5.81227,8.238682 2.32977,1.553966 3.90901,2.034643 6.96185,2.119005 1.80672,0.04993 2.40784,0.0038 3.41157,-0.261712 z M 165.414,60.233915 c -2.8416,-0.575125 -5.16608,-2.17237 -6.94042,-4.769062 -1.45684,-2.13203 -2.14123,-5.388256 -1.65873,-7.891992 0.3308,-1.716532 0.80823,-2.948408 1.60525,-4.14189 1.73107,-2.592136 4.07802,-4.100543 7.24444,-4.656046 5.11457,-0.897281 10.6927,3.236147 11.8089,8.750476 0.77843,3.84561 -0.42833,7.420042 -3.44927,10.216803 -2.41436,2.235202 -5.48583,3.124059 -8.61017,2.491711 z m -37.86774,1.79578 c 5.09785,-1.015717 9.29131,-5.135743 10.54362,-10.358979 0.44438,-1.853472 0.44263,-4.792157 -0.004,-6.549178 -1.02452,-4.031228 -3.76282,-7.471445 -7.39582,-9.291617 -2.01199,-1.008022 -3.15548,-1.252923 -5.8427,-1.251324 -1.82955,0.0011 -2.69999,0.07354 -3.4928,0.290722 -1.3828,0.378803 -3.42134,1.372684 -4.58732,2.236518 -1.92368,1.425183 -3.83617,4.28562 -4.77173,7.136872 -0.41525,1.265532 -0.45278,1.584199 -0.44961,3.817491 0.004,2.552276 0.17993,3.542181 1.03592,5.816177 0.7826,2.07901 2.92198,4.633102 5.09034,6.077067 2.90027,1.931376 6.647,2.719217 9.87401,2.076251 z m -5.69348,-3.233311 c -1.80058,-0.629049 -2.89892,-1.33241 -4.338,-2.777987 -1.97832,-1.987239 -2.88903,-4.09373 -3.09192,-7.151673 -0.24126,-3.636115 1.38474,-7.287942 4.19009,-9.410506 1.45492,-1.100814 2.73522,-1.655777 4.56178,-1.97736 1.46064,-0.257162 1.6924,-0.258582 3.15639,-0.01935 4.39708,0.718542 7.91475,4.068423 8.99338,8.564392 0.27748,1.15661 0.28986,3.773083 0.0231,4.879109 -0.11853,0.491399 -0.53942,1.570375 -0.93531,2.397723 -1.46171,3.054712 -4.32647,5.32352 -7.42798,5.88274 -1.41373,0.2549 -3.81164,0.07402 -5.13152,-0.387092 z"
       id="path1"
       sodipodi:nodetypes="scsssssssssssssssssscssssssssssssssssssssscsssssssssssscscscscscssssscssssscscsssssssscscssssssssssssssssssscsscsssssscssssssssssssssscsssssssssssssssssssssssssscssssccssssssssssscssssssssssssscsscscsssccsssssssssssssssccsssssssssssssssssssccsssssssssssssccccsssssssssssssssssssssssssssssssssssssssssssssscssssssssssssscssssscssssssssssssssss" /></g></svg>
