<?xml version="1.0" encoding="utf-8"?>
<!-- Generator: Adobe Illustrator 27.9.0, SVG Export Plug-In . SVG Version: 6.00 Build 0)  -->
<svg version="1.1" id="Lager_2" xmlns="http://www.w3.org/2000/svg" xmlns:xlink="http://www.w3.org/1999/xlink" x="0px" y="0px"
	 viewBox="0 0 667 666" style="enable-background:new 0 0 667 666;" xml:space="preserve">
<style type="text/css">
	.st0{fill:none;stroke:#000000;stroke-width:4;stroke-miterlimit:10;}
	.st1{fill:none;stroke:#000000;stroke-width:2;stroke-miterlimit:10;}
	.st2{fill:none;stroke:#000000;stroke-width:5;stroke-miterlimit:10;}
</style>
<path class="st0" d="M452.8,661.4c0,0,90.4,0.5,136-34.2c54.7-41.6,50.7-100.8,54.5-136c6.9-63.4,4.2-247.2,1-300.2
	c-2.1-35.3-0.8-103-55.5-144.7c-45.6-34.7-136-34.2-136-34.2H219.6c0,0-90.4-0.5-136,34.2C29,88,30.3,155.7,28.2,191.1
	c-3.2,53-5.9,236.8,1,300.2c3.8,35.2-0.2,94.3,54.5,136c45.6,34.7,136,34.2,136,34.2H452.8z"/>
<path class="st1" d="M435.2,618.4c0,0,95.1,0,122.9-23.8c31.1-26.7,35.7-92.1,38.9-122.3c5.9-54.4,3.6-212.2,0.8-257.7
	c-1.8-30.3-11-117.4-44.7-134.2c-33.9-16.9-117.9-19.3-117.9-19.3H237.2c0,0-92.2,5.5-118,22.2c-36.7,23.8-42.8,101-44.6,131.3
	c-2.7,45.5-5,203.3,0.8,257.7c3.3,30.2,6.2,94,45.7,123.3c30.7,22.8,116.1,22.8,116.1,22.8H435.2z"/>
<polygon points="187.5,167.2 196.4,175.5 195.8,228.3 188.5,235.3 179.2,228.6 178.9,174.9 "/>
<polygon points="188.2,237.6 179.6,245.5 179.6,298 187.8,306.3 195.1,298.7 195.1,243.5 "/>
<polygon points="345.7,166.4 354.6,175 354,229.8 346.7,237.1 337.4,230.2 337.1,174.4 "/>
<polygon points="271.4,167.2 280.3,175.4 279.7,227.6 272.4,234.5 263.1,227.9 262.8,174.8 "/>
<polygon points="271.7,237.5 280.6,245.7 280,297.8 272.7,304.7 263.5,298.1 263.1,245 "/>
<polygon points="347,238.5 355.9,246.7 355.3,298.8 348,305.7 338.8,299.1 338.4,246 "/>
<polygon points="274.6,165.9 282.8,157 334.9,157.7 341.8,164.9 335.2,174.2 282.1,174.5 "/>
<polygon points="275.6,238.3 283.8,229.3 335.9,230 342.8,237.3 336.2,246.5 283.1,246.8 "/>
<polygon points="276.6,308.6 284.8,299.7 336.9,300.3 343.8,307.6 337.2,316.9 284.1,317.2 "/>
<polygon points="420.3,220.3 423.2,217.1 441.9,217.4 444.4,220 442,223.3 423,223.4 "/>
<polygon points="422,171.8 424.9,168.6 443.6,168.8 446.1,171.4 443.7,174.7 424.7,174.8 "/>
<polygon points="420.6,196 417.4,193 417.6,174.4 420.2,171.9 423.5,174.2 423.7,193.3 "/>
<polygon points="421.2,220.7 418,217.8 418.3,199.1 420.9,196.6 424.2,199 424.3,218 "/>
<polygon points="444,273.3 439.8,269.4 440.1,244.8 443.6,241.6 447.9,244.7 448.1,269.7 "/>
<polygon points="408,273.1 403.8,269.2 404.1,244.7 407.6,241.4 411.9,244.5 412.1,269.5 "/>
<polygon points="444.7,310.7 440.5,306.9 440.8,282.3 444.2,279 448.6,282.2 448.8,307.2 "/>
<polygon points="409.3,240.2 413.1,235.9 437.7,236.3 441,239.7 437.9,244 412.8,244.2 "/>
<polygon points="409.6,275.5 413.5,271.3 438.1,271.6 441.3,275 438.2,279.4 413.2,279.5 "/>
<polygon points="409,310.8 412.8,306.6 437.4,306.9 440.7,310.4 437.5,314.7 412.5,314.9 "/>
<polygon points="232.6,404.5 241.5,412.6 240.8,464.8 233.6,471.7 224.3,465.1 224,412 "/>
<polygon points="233.9,481.1 242.8,489.3 242.2,541.4 234.9,548.3 225.7,541.7 225.3,488.6 "/>
<polygon points="311.2,482.4 320.1,490.6 319.4,542.7 312.2,549.6 302.9,543 302.6,489.9 "/>
<polygon points="360.1,483.1 369,491.2 368.3,543.4 361.1,550.3 351.8,543.7 351.5,490.6 "/>
<polygon points="440,405.8 448.9,414 448.3,466.1 441,473 431.7,466.4 431.4,413.3 "/>
<polygon points="304,400.9 295.8,409.8 243.7,409.2 236.8,401.9 243.4,392.7 296.5,392.3 "/>
<polygon points="306,479.5 297.8,488.4 245.7,487.8 238.8,480.5 245.4,471.3 298.5,470.9 "/>
<polygon points="302.7,556.1 294.5,565.1 242.4,564.4 235.5,557.1 242.1,547.9 295.2,547.6 "/>
<polygon points="435.5,401.6 427.3,410.5 375.2,409.8 368.2,402.6 374.8,393.3 427.9,393 "/>
<polygon points="434.1,478.2 426,487.1 373.8,486.5 366.9,479.2 373.5,469.9 426.6,469.6 "/>
<polygon points="435.5,554.8 427.3,563.7 375.2,563.1 368.2,555.8 374.8,546.6 427.9,546.2 "/>
<polygon points="510.2,522 514,517.8 538.6,518.1 541.9,521.6 538.8,525.9 513.7,526.1 "/>
<polygon points="512.8,484.4 516.7,480.2 541.3,480.5 544.5,483.9 541.4,488.3 516.4,488.4 "/>
<polygon points="510.2,560.4 514,556.1 538.6,556.5 541.9,559.9 538.8,564.2 513.7,564.4 "/>
<polygon points="507.6,517.3 503.4,513.5 503.7,488.9 507.2,485.6 511.5,488.7 511.7,513.8 "/>
<polygon points="545.3,555.6 541.1,551.8 541.4,527.2 544.8,523.9 549.2,527.1 549.3,552.1 "/>
<path class="st0" d="M424.4,127.2h-44c-2.7,0-4.8-2.2-4.8-4.8V101c0-2.7,2.2-4.8,4.8-4.8h44c2.7,0,4.8,2.2,4.8,4.8v21.4
	C429.3,125.1,427.1,127.2,424.4,127.2z"/>
<line class="st0" x1="383.9" y1="102.4" x2="383.9" y2="121.1"/>
<line class="st0" x1="393.3" y1="102.4" x2="393.3" y2="121.1"/>
<line class="st0" x1="402.3" y1="102.4" x2="402.3" y2="121.1"/>
<line class="st0" x1="411.5" y1="102.4" x2="411.5" y2="121.1"/>
<line class="st0" x1="420.8" y1="102.4" x2="420.8" y2="121.1"/>
<line class="st0" x1="432.4" y1="105.9" x2="432.4" y2="116.1"/>
<circle cx="323.1" cy="110" r="4.4"/>
<path class="st0" d="M317.5,102.5c-7.7,6.9,0.3,14.9,0.3,14.9"/>
<path class="st0" d="M309.3,91.3c-19.2,17.2,0.7,37.3,0.7,37.3"/>
<path class="st0" d="M312.9,98.1c-12.2,11,0.4,23.8,0.4,23.8"/>
<path class="st0" d="M328.9,102.5c7.7,6.9-0.3,14.9-0.3,14.9"/>
<path class="st0" d="M337.1,91.3c19.2,17.2-0.7,37.3-0.7,37.3"/>
<path class="st0" d="M333.5,98.1c12.2,11-0.4,23.8-0.4,23.8"/>
<ellipse class="st0" cx="410.8" cy="163.6" rx="6.6" ry="7"/>
<line class="st0" x1="526.8" y1="151.5" x2="526.8" y2="216.9"/>
<line class="st0" x1="499.3" y1="200.2" x2="555.2" y2="167.4"/>
<line class="st0" x1="499.9" y1="167.1" x2="554.1" y2="200.4"/>
<polyline class="st0" points="517.8,157.2 526.1,162.7 536.3,157.4 "/>
<polyline class="st0" points="543.8,163.8 544.6,172.6 554.3,179.5 "/>
<polyline class="st0" points="554.3,187.4 544.6,194 544.9,205.7 "/>
<polyline class="st0" points="536.5,209.2 526.1,203.5 518.2,209 "/>
<polyline class="st0" points="499.9,187.8 509.6,193.8 509.6,205.2 "/>
<polyline class="st0" points="510.3,163.6 509.9,173.3 500.4,179.9 "/>
<ellipse cx="378.2" cy="309.8" rx="6.6" ry="7"/>
<ellipse class="st0" cx="508.9" cy="399.4" rx="6.6" ry="7"/>
<ellipse class="st0" cx="544.7" cy="458.4" rx="6.6" ry="7"/>
<ellipse cx="475.3" cy="557.5" rx="6.6" ry="7"/>
<line class="st2" x1="506.3" y1="463.9" x2="549" y2="392.6"/>
<path class="st2" d="M143.7,401.7l10.8,13c0,0,8.9,9.9,8.8,20.8c-0.2,10.9-8.6,21.8-19.8,21.6c-11.2-0.2-18.3-8.9-18.7-21.1
	C124.4,423.9,143.7,401.7,143.7,401.7z"/>
<path class="st2" d="M126.4,408.2"/>
<path class="st2" d="M132.1,417.4l-5.7-9.2l-8.9,12.3c0,0-5,5.7-5,14.2c0,8.5,3.6,12.6,11.2,14.4c7.6,1.9,4.6-0.7,4.6-0.7"/>
</svg>
