<?xml version="1.0" encoding="utf-8"?>
<!-- Generator: Adobe Illustrator 27.9.0, SVG Export Plug-In . SVG Version: 6.00 Build 0)  -->
<svg version="1.1"
	 id="Layer_1" xmlns:inkscape="http://www.inkscape.org/namespaces/inkscape" xmlns:svg="http://www.w3.org/2000/svg" xmlns:rdf="http://www.w3.org/1999/02/22-rdf-syntax-ns#" xmlns:sodipodi="http://sodipodi.sourceforge.net/DTD/sodipodi-0.dtd" xmlns:dc="http://purl.org/dc/elements/1.1/" xmlns:cc="http://creativecommons.org/ns#"
	 xmlns="http://www.w3.org/2000/svg" xmlns:xlink="http://www.w3.org/1999/xlink" x="0px" y="0px" viewBox="0 0 667 666"
	 style="enable-background:new 0 0 667 666;" xml:space="preserve">
<style type="text/css">
	.st0{fill:none;stroke:#000000;}
	.st1{fill:none;stroke:#000000;stroke-width:4;stroke-miterlimit:10;}
	.st2{fill:none;stroke:#000000;stroke-width:2;stroke-miterlimit:10;}
	.st3{font-family:'MyriadPro-Regular';}
	.st4{font-size:48.0276px;}
	.st5{stroke:#000000;stroke-width:4;stroke-miterlimit:10;}
	.st6{fill:#666666;}
	.st7{font-size:24.2875px;}
</style>
<sodipodi:namedview  bordercolor="#666666" borderopacity="1" gridtolerance="10" guidetolerance="10" id="namedview315" inkscape:current-layer="Layer_1" inkscape:cx="105.58667" inkscape:cy="465.79079" inkscape:pageopacity="0" inkscape:pageshadow="2" inkscape:window-height="987" inkscape:window-maximized="1" inkscape:window-width="1680" inkscape:window-x="1672" inkscape:window-y="-8" inkscape:zoom="1.0022655" objecttolerance="10" pagecolor="#ffffff" showgrid="false">
	</sodipodi:namedview>
<path class="st0" d="M-108,333.9"/>
<path class="st1" d="M450.1,658c0,0,90.4,0.5,136-34.2c54.7-41.6,50.7-100.8,54.5-136c6.9-63.4,4.2-247.2,1-300.2
	c-2.1-35.3-0.8-103-55.5-144.7c-45.6-34.7-136-34.2-136-34.2H216.9c0,0-90.4-0.5-136,34.2C26.2,84.6,27.6,152.3,25.5,187.6
	c-3.2,53-5.9,236.8,1,300.2c3.8,35.2-0.2,94.3,54.5,136c45.6,34.7,136,34.2,136,34.2H450.1z"/>
<path class="st2" d="M432.5,615c0,0,95.1,0,122.9-23.8c31.1-26.7,35.7-92.1,38.9-122.3c5.9-54.4,3.6-212.2,0.8-257.7
	c-1.8-30.3-11-117.4-44.7-134.2C516.5,60,432.5,57.7,432.5,57.7H234.4c0,0-92.2,5.5-118,22.2c-36.7,23.8-42.8,101-44.6,131.3
	c-2.7,45.5-5,203.3,0.8,257.7c3.3,30.2,6.2,94,45.7,123.3C149.1,615,234.4,615,234.4,615H432.5z"/>
<circle cx="193" cy="514.9" r="14"/>
<text transform="matrix(1 0 0 1 130.3098 478.6)" class="st3 st4">10 Sec</text>
<line class="st5" x1="23" y1="351.1" x2="70" y2="351.1"/>
<line class="st5" x1="599" y1="351.1" x2="646" y2="351.1"/>
<g>
	<polygon class="st6" points="204.3,98.3 240.9,98.3 240.9,107.5 213.6,107.5 213.6,125.6 240.9,125.6 240.9,161.8 204.3,161.8 
		204.3,152.7 231.4,152.7 231.4,134.8 204.3,134.8 	"/>
	<path class="st6" d="M336.9,125.6v36.3h36.5v-36.3H336.9z M364.2,152.7H346v-17.9h18.2V152.7z"/>
	<path class="st6" d="M248.4,125.6v36.3h36.5v-36.3H248.4z M275.9,152.7h-18.2v-17.9h18.2V152.7z"/>
	<polygon class="st6" points="292.6,125.6 329.2,125.6 329.2,161.8 319.9,161.8 319.9,134.8 301.8,134.8 301.8,161.8 292.6,161.8 	
		"/>
	<polygon class="st6" points="425.6,125.6 462.1,125.6 462.1,134.8 434.7,134.8 434.7,143.8 462.1,143.8 462.1,152.7 434.7,152.7 
		434.7,161.8 425.6,161.8 	"/>
	<polygon class="st6" points="381,125.6 417.6,125.6 417.6,134.8 390.3,134.8 390.3,143.8 417.6,143.8 417.6,152.7 390.3,152.7 
		390.3,161.8 381,161.8 	"/>
	<polygon class="st6" points="425.6,125.6 462.1,125.6 462.1,134.8 434.7,134.8 434.7,143.8 462.1,143.8 462.1,152.7 434.7,152.7 
		434.7,161.8 425.6,161.8 	"/>
	<path class="st6" d="M246.5,97.9c1.1-0.8,2-1.7,3.1-2.5c0.5,0.7,3.1,3.7,2.7,8.2c-0.3,3.7-2.3,6-2.9,6.8c-0.9-0.8-2-1.6-2.9-2.4
		c0.5-0.5,1.6-1.9,1.9-3.9C248.8,100.8,246.9,98.3,246.5,97.9z"/>
	<path class="st6" d="M253.1,92.4c0.9-0.9,1.9-1.9,2.8-2.8c1.3,1.6,4,5.2,4.7,10.7c1.1,8.3-3.5,14.2-4.4,15.4
		c-0.9-0.8-2-1.5-2.9-2.3c0.7-0.8,4.7-5.5,4-12.2C256.6,96.5,254,93.5,253.1,92.4z"/>
	<path class="st6" d="M259.5,86.9c0.9-0.8,2-1.6,2.9-2.4c1.5,1.7,6.7,8.4,6.7,18.3s-5,16.6-6.4,18.3c-0.9-0.7-1.9-1.5-2.8-2.1
		c1.2-1.3,6-7.1,6-15.9C265.7,94,260.7,88.2,259.5,86.9z"/>
</g>
<text transform="matrix(1 0 0 1 244.1875 203.7362)" class="st6 st3 st7">Model: SNZB-02D</text>
</svg>
