<?xml version="1.0" encoding="UTF-8"?>
<svg xmlns="http://www.w3.org/2000/svg" version="1.1" xmlns:cc="http://creativecommons.org/ns#" xmlns:dc="http://purl.org/dc/elements/1.1/" xmlns:inkscape="http://www.inkscape.org/namespaces/inkscape" xmlns:rdf="http://www.w3.org/1999/02/22-rdf-syntax-ns#" xmlns:sodipodi="http://sodipodi.sourceforge.net/DTD/sodipodi-0.dtd" xmlns:svg="http://www.w3.org/2000/svg" viewBox="0 0 667 666">
  <!-- Generator: Adobe Illustrator 28.7.1, SVG Export Plug-In . SVG Version: 1.2.0 Build 142)  -->
  <g>
    <g id="Lager_1">
      <g id="Layer_1">
        <sodipodi:namedview id="namedview315" bordercolor="#666666" borderopacity="1" gridtolerance="10" guidetolerance="10" inkscape:current-layer="Layer_1" inkscape:cx="371.13476" inkscape:cy="374.07984" inkscape:document-rotation="0" inkscape:pageopacity="0" inkscape:pageshadow="2" inkscape:window-height="987" inkscape:window-maximized="1" inkscape:window-width="1680" inkscape:window-x="-8" inkscape:window-y="-8" inkscape:zoom="1.0022655" objecttolerance="10" pagecolor="#ffffff" showgrid="false"/>
        <g>
          <path d="M649.6,277c-3.3,0-6.7-1-9.6-3.2L329.8,44.9,31.2,262.2c-7.3,5.3-17.5,3.7-22.8-3.6-5.3-7.3-3.7-17.5,3.6-22.8L320.1,11.4c5.7-4.2,13.5-4.2,19.2,0l319.8,236c7.2,5.3,8.8,15.5,3.4,22.8-3.2,4.3-8.2,6.6-13.1,6.6h0Z"/>
          <path d="M529.9,653.5h-11.5l-61.1-158.4v123.4h22v33h-78.5v-33h24v-141h-24v-33h75l49.6,129.3,50.1-129.3h75.8v33h-24.1v141h24.1v33h-83.1v-33h23.8v-123.5l-61.8,158.6h-.3Z"/>
          <path d="M391.9,651.5h-173.6v-33h25.8v-141h-25.8v-33h173.6v68.2h-32.7v-35h-76.9v51.1h74v33h-74v57h76.9v-36.2h32.7v69.3-.3Z"/>
          <path d="M211,651.5h-84.2v-33h23.4v-59.3h-78.5v59.3h23.5v33H10.9v-33h22.7v-141H10.9v-33h84.2v33h-23.5v48.8h78.5v-48.8h-23.4v-33h84.2v33h-22.8v141h22.8v33Z"/>
          <path d="M650.6,423.7h-64.4v-26.1h16.4l-8-24.4h-45.9l-8.2,24.4h15.9v26.1h-64.7v-26.1h18.7l36.3-101.4h-15.6v-24.4h81.6v24.4h-16.2l37.3,101.4h17.4v26.1h-.4ZM556.6,348h29.8l-14.6-45.9-15.2,45.9h0Z"/>
          <path d="M510.1,423.7h-37.7l-32.7-67.2h-13.6v41h18.4v26.1h-68v-26.1h19.8v-99.7h-19.8v-26.1h62.4c12.5,0,22.7,1,30.1,3,8,2.2,14.8,6.6,19.9,13.5,5.2,6.7,7.9,15.4,7.9,25.3,0,19.4-9.3,32.3-28,38.5l22.2,45.6h19.1v26.1ZM426,330.4h12.9c7.7,0,13.5-.4,17.1-1.4,3-.9,5.5-2.4,7.5-5,1.9-2.6,2.9-6.2,2.9-10.8s-1-6.9-2.9-9.3c-2-2.6-4.3-4-7-4.7-3.3-.9-8.8-1.1-15.9-1.1h-14.3v32.4h-.1Z"/>
          <path d="M344.7,423.7h-68.9v-26.1h19.4v-42l-40.9-57.5h-19.5v-26.1h67.3v26.1h-14.2l23.7,33.1,21.7-33.1h-14.6v-26.1h65.4v26.1h-20.9l-38,57.5v42.2h19.7v26.1h0Z"/>
          <path d="M214.3,423.7h-67v-26.1h18.4v-99.7h-21.5v36.7h-26v-62.8h124.7v62.8h-26v-36.7h-21.4v99.7h18.7v26.1h.1Z"/>
          <path d="M68,426c-11.3,0-21.8-3.3-31.3-9.8v7.6H10.6v-60.3h26.1v15.8c7.9,13.8,17.5,20.5,29.7,20.5s11.2-1.9,15.2-5.5,6-8.2,6-14.1-1.4-9.3-4.3-11.5c-2.4-1.9-8.2-4.7-21.2-8.3-13.1-3.4-23-6.9-29.4-10-6.9-3.4-12.3-8.3-16.5-14.6-4.2-6.3-6.2-13.9-6.2-22.4,0-13.2,4.4-24,13.3-31.9,8.8-7.9,19.8-11.9,33-11.9s19.2,2.6,28,7.6v-6h25.7v51.8h-25.7v-12.8c-6.6-9.3-15.2-13.8-26.4-13.8s-12.1,1.4-15.5,4.4c-3.3,2.9-4.9,6-4.9,9.9s.9,5.6,2.4,7.7c1.7,2.3,3.9,4,6.5,5.2,2.2.9,7.2,2.6,18.9,5.6,13.1,3.4,22.4,6.5,28.4,9.5,6.3,3.2,11.9,8.5,16.4,15.8,4.6,7.3,6.7,15.8,6.7,25.3s-4.7,24.7-14.2,33.4c-9.3,8.6-21.1,13.1-34.9,13.1v-.4Z"/>
        </g>
      </g>
    </g>
  </g>
</svg>