<svg height="960" viewBox="0 0 960 960" width="960" xmlns="http://www.w3.org/2000/svg"><path d="M297.6,129.2h.5s513.2,19.1,513.2,19.1c.2,0,.3,0,.5,0h.5c77.5,4.9,140.7,67.9,140.7,142.8v412.8c0,75-63.2,137.9-140.7,142.8-.3,0-.7,0-1,0l-513.2,19h-.6c-10.6.6-21.2,0-31.5-1.7l-1.1-.2h-.5c-1.1,0-2.3-.2-3.4-.4h-.8c-45.6-7.8-76.9-13.3-94.1-16.6-.2,0-1.9-.3-3.8-.7h-.5c0,0-.5-.2-.5-.2-1.2-.2-2.3-.4-3-.5-5.4-1-10.7-2-16.3-3.1-15.9-3.3-31.4-7.3-46.2-12.2-22.3-7.4-41.4-16.3-56.7-27.6-22.7-16.8-36.9-38.9-36.9-66.1v-.4l4.3-459.7v-.7c.3-33.9,15.4-60.5,43.3-79.2,19.7-13.2,43.5-22,85.1-33.5.5-.1,1-.3,1.6-.4l102.2-23.9h.2c18.5-7.4,38.5-10.6,59-9.5h0ZM913,671.4l-710,21.2v16.2c0,57.6,36.9,102.2,90.7,117.2.8,0,1.6,0,2.5-.1l513.6-19c57-3.6,103.2-49.6,103.2-102.9v-32.6ZM223.8,183.2l-78.4,18.3c-63.9,17.7-99,32.4-99,75.2l-4.3,459.7c0,51.7,119.9,68.9,131.6,71.2,12.6,2.4,33.2,6.1,61.7,10.9-32.3-25.5-52.3-64.2-52.3-109.8v-25.6s0,0,0,0c0-.2,0-.4,0-.6v-408.2c0-38.6,15-69.6,40.8-91.2h0ZM445.8,723.5c17.8-.3,32.5,14.5,32.8,33.4.3,19.1-14.1,35.3-32.2,36.2-18.1.9-33-14-33.3-33.4-.3-19.3,14.1-35.5,32.2-36.2h.5ZM540.8,720.6c17.6,0,31.9,14.5,32.2,32.9.3,18.8-14.1,34.8-32.2,35.6-18.1.9-33-13.8-33.3-32.9-.3-19,14.1-35,32.2-35.7h.5s.5,0,.5,0ZM635.3,717.8c17.6,0,31.9,14.2,32.2,32.4.3,18.5-14.1,34.2-32.2,35.1-18.1.9-33-13.6-33.3-32.4-.3-18.7,14.1-34.5,32.2-35.1h.5s.5,0,.5,0ZM729.8,715c17.6,0,31.9,14,32.2,31.9.3,18.2-14.1,33.7-32.2,34.5-18.1.9-33-13.4-33.3-31.8-.3-18.5,14.1-33.9,32.2-34.5h.5s.5,0,.5,0ZM314.8,169.9c-28.5,2.3-53.5,10.6-72.5,24.3-25.4,18.3-39.3,45.5-39.3,80.2v398.2l710-21.2v-360.2c0-53.2-46.2-99.3-103.2-102.9l-495-18.4ZM820.7,264.8c31.8,0,57.3,27.5,57.3,61.1s-25.5,61.1-57.3,61.1-57.3-27.5-57.3-61.1,25.5-61.1,57.3-61.1ZM820.7,284.8c-20.4,0-37.3,18.2-37.3,41.1s16.9,41.1,37.3,41.1,37.3-18.2,37.3-41.1-16.9-41.1-37.3-41.1ZM351.2,727.6c17.8-.3,32.5,14.5,32.8,33.4.3,19.1-14.1,35.3-32.2,36.2-18.1.9-33-14-33.3-33.4-.3-19.3,14.1-35.5,32.2-36.2h.5ZM824.3,711.7c17.6,0,31.9,14.5,32.2,32.9.3,18.8-14.1,34.8-32.2,35.6-18.1.9-33-13.8-33.3-32.9-.3-19,14.1-35,32.2-35.7h.5s.5,0,.5,0Z"/></svg>