<?xml version="1.0" encoding="utf-8"?>
<!-- Generator: Adobe Illustrator 27.9.0, SVG Export Plug-In . SVG Version: 6.00 Build 0)  -->
<svg version="1.1"
	 id="Layer_1" xmlns:rdf="http://www.w3.org/1999/02/22-rdf-syntax-ns#" xmlns:sodipodi="http://sodipodi.sourceforge.net/DTD/sodipodi-0.dtd" xmlns:dc="http://purl.org/dc/elements/1.1/" xmlns:inkscape="http://www.inkscape.org/namespaces/inkscape" xmlns:svg="http://www.w3.org/2000/svg" xmlns:cc="http://creativecommons.org/ns#"
	 xmlns="http://www.w3.org/2000/svg" xmlns:xlink="http://www.w3.org/1999/xlink" x="0px" y="0px" viewBox="0 0 667 666"
	 style="enable-background:new 0 0 667 666;" xml:space="preserve">
<style type="text/css">
	.st0{fill:none;stroke:#000000;stroke-width:3;stroke-miterlimit:10;}
	.st1{fill:#FFFFFF;stroke:#000000;stroke-width:4;stroke-miterlimit:10;}
	.st2{fill:#FFFFFF;stroke:#000000;stroke-width:5;stroke-miterlimit:10;}
	.st3{fill:#FFFFFF;stroke:#000000;stroke-width:1.0083;stroke-miterlimit:10;}
	.st4{fill:#FFFFFF;stroke:#000000;stroke-miterlimit:10;}
	.st5{fill:#FFFFFF;stroke:#000000;stroke-width:0.3151;stroke-miterlimit:10;}
</style>
<sodipodi:namedview  bordercolor="#666666" borderopacity="1" gridtolerance="10" guidetolerance="10" id="namedview315" inkscape:current-layer="Layer_1" inkscape:cx="105.58667" inkscape:cy="465.79079" inkscape:pageopacity="0" inkscape:pageshadow="2" inkscape:window-height="987" inkscape:window-maximized="1" inkscape:window-width="1680" inkscape:window-x="1672" inkscape:window-y="-8" inkscape:zoom="1.0022655" objecttolerance="10" pagecolor="#ffffff" showgrid="false">
	</sodipodi:namedview>
<ellipse transform="matrix(0.3852 -0.9228 0.9228 0.3852 -159.3189 370.1188)" class="st0" cx="198.1" cy="304.6" rx="212.9" ry="190.6"/>
<path class="st1" d="M580.1,268.7c0,0-157.3-71.6-254.1-93.8c-23.9-5.5-141.4,5.5-189.6,112.9c-38.6,86,19.1,204.2,37.3,215.8
	c88.7,56.5,218.8,125,218.8,125"/>
<ellipse transform="matrix(0.4518 -0.8921 0.8921 0.4518 -132.8148 687.0709)" class="st2" cx="492.6" cy="451.6" rx="204.4" ry="152.9"/>
<ellipse transform="matrix(0.4518 -0.8921 0.8921 0.4518 -133.1183 688.9742)" class="st3" cx="494" cy="452.8" rx="189.1" ry="140.7"/>
<path class="st4" d="M334.9,200l0,8.3c0.4,5,16.8,7.9,36.7,6.4c19.9-1.5,35.7-6.7,35.4-11.7l0-8.3"/>
<ellipse transform="matrix(0.9973 -7.367291e-02 7.367291e-02 0.9973 -13.5273 27.866)" class="st4" cx="371" cy="197.3" rx="36.1" ry="9.1"/>
<ellipse transform="matrix(0.9973 -7.367291e-02 7.367291e-02 0.9973 -13.5083 27.8722)" class="st5" cx="371.1" cy="197" rx="11.2" ry="2.9"/>
</svg>
